<?xml version="1.0" encoding="UTF-8"?>
<!DOCTYPE svg PUBLIC "-//W3C//DTD SVG 1.1//EN" "http://www.w3.org/Graphics/SVG/1.1/DTD/svg11.dtd">
<svg xmlns="http://www.w3.org/2000/svg" version="1.1" width="2048px" height="2048px" style="shape-rendering:geometricPrecision; text-rendering:geometricPrecision; image-rendering:optimizeQuality; fill-rule:evenodd; clip-rule:evenodd" xmlns:xlink="http://www.w3.org/1999/xlink">
<g><path style="opacity:0.882" fill="#fefffe" d="M 1428.5,377.5 C 1436.38,377.839 1444.05,379.339 1451.5,382C 1461.2,386.828 1465.86,394.162 1465.5,404C 1465.33,406.833 1465.17,409.667 1465,412.5C 1463.13,414.808 1462.13,417.475 1462,420.5C 1453.32,432.845 1444.65,445.178 1436,457.5C 1432.16,461.51 1427.99,465.177 1423.5,468.5C 1417.07,478.889 1410.57,489.223 1404,499.5C 1398.61,504.017 1392.94,508.017 1387,511.5C 1383.96,515.919 1381.3,520.586 1379,525.5C 1375.31,528.691 1371.48,531.691 1367.5,534.5C 1360.77,543.605 1353.93,552.605 1347,561.5C 1345.61,562.554 1344.11,562.72 1342.5,562C 1339.84,558.338 1337.17,554.671 1334.5,551C 1336.78,542.91 1338.95,534.744 1341,526.5C 1347.37,517.282 1352.2,507.282 1355.5,496.5C 1360.93,488.766 1366.26,481.099 1371.5,473.5C 1372.38,469.191 1373.21,464.858 1374,460.5C 1377.37,457.962 1380.87,455.629 1384.5,453.5C 1385.58,450.674 1386.58,447.841 1387.5,445C 1390.04,443.23 1392.71,441.73 1395.5,440.5C 1398.02,432.463 1401.35,424.796 1405.5,417.5C 1410.12,412.949 1414.29,407.949 1418,402.5C 1420.97,393.899 1424.47,385.566 1428.5,377.5 Z"/></g>
<g><path style="opacity:0.922" fill="#fefffe" d="M 1976.5,437.5 C 1980.79,438.182 1985.13,438.349 1989.5,438C 1992.18,439.742 1994.51,441.908 1996.5,444.5C 2003.12,447.721 2008.96,452.055 2014,457.5C 2014.72,459.112 2014.55,460.612 2013.5,462C 2018.68,468.18 2021.68,475.347 2022.5,483.5C 2021.88,485.681 2021.88,488.014 2022.5,490.5C 2022.66,499.038 2020.83,507.038 2017,514.5C 2016.1,524.253 2015.43,533.92 2015,543.5C 2013.4,547.097 2011.07,550.097 2008,552.5C 2003.89,560.926 2000.39,569.593 1997.5,578.5C 1991.48,586.56 1985.98,594.894 1981,603.5C 1979.67,608.813 1978.34,614.146 1977,619.5C 1963.06,634.39 1948.89,649.057 1934.5,663.5C 1930.18,670.814 1924.52,676.814 1917.5,681.5C 1914.99,682.795 1912.32,683.461 1909.5,683.5C 1909.65,684.552 1909.48,685.552 1909,686.5C 1904.83,690 1901,693.833 1897.5,698C 1892.7,700.242 1887.87,702.408 1883,704.5C 1878.5,708.339 1874,712.172 1869.5,716C 1866.07,716.701 1862.74,716.368 1859.5,715C 1857.75,712.226 1856.25,712.726 1855,716.5C 1853.69,722.602 1852.19,728.602 1850.5,734.5C 1848.89,736.731 1847.06,738.731 1845,740.5C 1843.08,750.918 1839.58,760.752 1834.5,770C 1835.02,770.561 1835.36,771.228 1835.5,772C 1834.3,780.467 1833.3,788.967 1832.5,797.5C 1831.78,799.482 1830.62,801.149 1829,802.5C 1828.22,811.139 1826.39,819.472 1823.5,827.5C 1823.98,830.782 1825.31,833.616 1827.5,836C 1827.32,839.057 1827.32,842.057 1827.5,845C 1828.5,845.333 1829.5,845.667 1830.5,846C 1831.35,848.362 1832.85,850.195 1835,851.5C 1835.91,850.346 1836.75,850.513 1837.5,852C 1841.15,852.499 1844.82,852.665 1848.5,852.5C 1848.01,856.29 1848.84,856.956 1851,854.5C 1852.74,856.973 1854.58,856.973 1856.5,854.5C 1861.41,853.121 1866.41,852.288 1871.5,852C 1876.01,848.655 1881.01,846.155 1886.5,844.5C 1889.25,839.659 1892.92,835.659 1897.5,832.5C 1900.47,828.11 1902.97,823.443 1905,818.5C 1909.35,815.398 1913.85,812.398 1918.5,809.5C 1922.45,806.39 1926.28,803.057 1930,799.5C 1933.7,793.737 1937.53,788.07 1941.5,782.5C 1946.15,779.514 1950.15,775.847 1953.5,771.5C 1959.79,754.011 1971.79,742.345 1989.5,736.5C 1991.09,737.01 1992.25,738.01 1993,739.5C 2000.33,754.565 2000.33,769.565 1993,784.5C 1985.32,794.873 1979.32,806.206 1975,818.5C 1971.65,823.845 1967.65,828.511 1963,832.5C 1959.99,840.469 1955.83,847.635 1950.5,854C 1942.61,856.88 1936.11,861.714 1931,868.5C 1929.25,871.044 1927.25,873.377 1925,875.5C 1922.67,880.833 1920.33,886.167 1918,891.5C 1915.49,893.155 1912.66,893.989 1909.5,894C 1905.73,896.41 1902.06,898.91 1898.5,901.5C 1896.32,904.01 1894.32,906.677 1892.5,909.5C 1891.75,910.736 1891.42,912.07 1891.5,913.5C 1888.09,913.457 1884.76,913.957 1881.5,915C 1875.48,921.532 1869.82,928.366 1864.5,935.5C 1861.17,933.167 1857.83,930.833 1854.5,928.5C 1849.67,930.443 1844.67,931.777 1839.5,932.5C 1838.11,932.379 1836.77,932.046 1835.5,931.5C 1831.76,933.058 1827.93,934.391 1824,935.5C 1821.5,934.917 1819.5,933.584 1818,931.5C 1810.06,932.742 1802.56,930.909 1795.5,926C 1792.33,921.35 1790.33,916.183 1789.5,910.5C 1788.15,909.05 1786.48,908.383 1784.5,908.5C 1784,903.942 1783.33,899.442 1782.5,895C 1782.96,894.586 1783.29,894.086 1783.5,893.5C 1780.2,891.375 1777.87,888.542 1776.5,885C 1777.09,880.98 1777.75,876.98 1778.5,873C 1777.52,860.951 1777.19,848.951 1777.5,837C 1779.43,816.792 1783.93,797.292 1791,778.5C 1791.15,768.184 1793.48,758.518 1798,749.5C 1798.75,745.148 1799.59,740.815 1800.5,736.5C 1801.09,736.291 1801.59,735.957 1802,735.5C 1804.51,725.291 1808.01,715.458 1812.5,706C 1812.09,704.856 1811.76,703.689 1811.5,702.5C 1812.77,695.456 1813.43,688.456 1813.5,681.5C 1815.56,677.031 1817.06,672.364 1818,667.5C 1821.07,663.312 1823.9,658.979 1826.5,654.5C 1827.97,651.283 1829.14,647.949 1830,644.5C 1829.25,632.281 1829.92,619.947 1832,607.5C 1833.75,601.672 1835.92,596.005 1838.5,590.5C 1839.83,590.5 1841.17,590.5 1842.5,590.5C 1843.8,593.799 1846.13,596.132 1849.5,597.5C 1851.59,597.514 1853.43,596.848 1855,595.5C 1856.6,591.903 1858.93,588.903 1862,586.5C 1867.55,569.193 1875.55,553.193 1886,538.5C 1887.38,531.249 1889.38,524.249 1892,517.5C 1893.65,516.283 1895.48,515.45 1897.5,515C 1898.19,513.933 1898.69,512.766 1899,511.5C 1905.19,507.643 1909.53,502.309 1912,495.5C 1916.45,490.926 1921.12,486.592 1926,482.5C 1930.57,474.035 1936.57,466.702 1944,460.5C 1944.88,457.898 1946.38,455.731 1948.5,454C 1957.08,446.855 1966.41,441.355 1976.5,437.5 Z M 1971.5,511.5 C 1972.75,512.334 1973.41,513.667 1973.5,515.5C 1973.05,519.173 1972.55,522.84 1972,526.5C 1967.7,534.424 1963.37,542.424 1959,550.5C 1958.36,553.559 1957.52,556.559 1956.5,559.5C 1952.85,562.299 1949.02,564.966 1945,567.5C 1945.98,573.382 1943.81,577.382 1938.5,579.5C 1937.7,583.745 1936.03,587.578 1933.5,591C 1929.57,591.338 1925.9,592.504 1922.5,594.5C 1920.5,597.833 1918.5,601.167 1916.5,604.5C 1913.12,606.692 1909.45,608.026 1905.5,608.5C 1904.8,617.84 1899.8,622.673 1890.5,623C 1893.66,618.517 1896.16,613.684 1898,608.5C 1898.99,605.576 1899.65,602.576 1900,599.5C 1903.17,596.658 1906,593.492 1908.5,590C 1913.05,581.674 1917.22,573.174 1921,564.5C 1929.96,553.934 1937.96,542.6 1945,530.5C 1945.48,529.552 1945.65,528.552 1945.5,527.5C 1952.16,525.831 1957.49,522.164 1961.5,516.5C 1965.16,515.27 1968.49,513.603 1971.5,511.5 Z"/></g>
<g><path style="opacity:0.91" fill="#fefffe" d="M 1822.5,455.5 C 1824.07,455.937 1825.24,456.937 1826,458.5C 1827.24,462.839 1829.07,466.839 1831.5,470.5C 1831.29,471.086 1830.96,471.586 1830.5,472C 1833.88,475.133 1835.04,478.966 1834,483.5C 1830.67,488.328 1827.67,493.328 1825,498.5C 1824.92,504.96 1824.09,511.293 1822.5,517.5C 1819.71,521.154 1816.55,524.487 1813,527.5C 1810.97,532.619 1809.47,537.952 1808.5,543.5C 1805.48,547.69 1802.65,552.024 1800,556.5C 1797.83,563.018 1796.16,569.685 1795,576.5C 1792.87,578.091 1791.2,580.091 1790,582.5C 1787.19,590.102 1782.86,596.769 1777,602.5C 1774.25,611.069 1771.58,619.736 1769,628.5C 1766.3,633.401 1763.47,638.234 1760.5,643C 1758.39,648.96 1756.89,655.127 1756,661.5C 1749.03,668.611 1743.53,676.611 1739.5,685.5C 1733.45,701.369 1726.95,717.035 1720,732.5C 1714.3,741.891 1708.97,751.557 1704,761.5C 1703.16,768.432 1701.49,775.099 1699,781.5C 1695.4,787.438 1691.4,793.105 1687,798.5C 1685.82,805.098 1683.82,811.432 1681,817.5C 1673.11,826.606 1667.28,836.939 1663.5,848.5C 1658.56,853.529 1656.23,859.695 1656.5,867C 1648.62,876.829 1640.46,886.329 1632,895.5C 1631.27,897.953 1630.27,900.286 1629,902.5C 1620.23,913.589 1612.73,925.422 1606.5,938C 1599.13,950.704 1590.96,962.871 1582,974.5C 1575.41,982.507 1567.24,988.341 1557.5,992C 1550.9,993.459 1544.9,992.292 1539.5,988.5C 1536.18,984.682 1532.68,981.015 1529,977.5C 1525.72,966.525 1521.89,955.692 1517.5,945C 1518.26,943.636 1517.76,942.469 1516,941.5C 1516,935.124 1515.17,928.957 1513.5,923C 1514.24,918.012 1514.91,913.012 1515.5,908C 1515.75,906.284 1516.41,904.784 1517.5,903.5C 1515.53,901.292 1513.69,898.959 1512,896.5C 1512.59,887.634 1513.75,878.801 1515.5,870C 1513.51,857.366 1511.68,844.532 1510,831.5C 1507.85,829.723 1508.01,828.223 1510.5,827C 1509.06,826.009 1508.06,824.676 1507.5,823C 1507.88,818.827 1509.21,814.994 1511.5,811.5C 1509.21,803.352 1508.04,795.019 1508,786.5C 1507.13,785.892 1506.63,785.059 1506.5,784C 1506.57,779.289 1506.57,774.622 1506.5,770C 1503.65,766.984 1500.65,764.15 1497.5,761.5C 1496.67,750.849 1496.17,740.182 1496,729.5C 1490.48,724.746 1487.31,718.746 1486.5,711.5C 1482.21,710.764 1479.04,708.431 1477,704.5C 1473.34,682.287 1478.68,662.287 1493,644.5C 1498.72,637.945 1504.89,631.945 1511.5,626.5C 1514.8,625.132 1517.8,625.632 1520.5,628C 1539.07,643.926 1547.57,664.759 1546,690.5C 1545.77,693.095 1545.27,695.595 1544.5,698C 1547.58,697.395 1550.58,696.228 1553.5,694.5C 1553.81,697.75 1553.97,701.083 1554,704.5C 1556.72,706.934 1559.22,709.601 1561.5,712.5C 1558.68,719.302 1556.01,726.135 1553.5,733C 1554.04,745.802 1555.37,758.636 1557.5,771.5C 1558.83,771.5 1560.17,771.5 1561.5,771.5C 1561.47,779.544 1560.47,787.377 1558.5,795C 1559.09,798.261 1559.09,801.427 1558.5,804.5C 1558.72,806.055 1559.39,807.389 1560.5,808.5C 1557.94,810.674 1557.94,812.841 1560.5,815C 1560.24,816.261 1559.57,817.261 1558.5,818C 1560.95,820.988 1560.95,823.988 1558.5,827C 1559.07,829.85 1559.07,832.85 1558.5,836C 1558.71,838.491 1559.37,840.825 1560.5,843C 1560.09,843.945 1559.43,844.612 1558.5,845C 1560.71,846.462 1561.37,848.295 1560.5,850.5C 1562.56,855.933 1563.89,861.6 1564.5,867.5C 1564.07,868.293 1563.74,869.127 1563.5,870C 1564.53,878.74 1565.19,887.407 1565.5,896C 1566.27,899.242 1567.77,902.075 1570,904.5C 1571.38,902.365 1572.38,900.032 1573,897.5C 1575.64,896.024 1577.81,894.024 1579.5,891.5C 1578.48,889.568 1578.31,887.568 1579,885.5C 1580.37,883.63 1581.53,881.63 1582.5,879.5C 1585.06,878.253 1587.73,877.253 1590.5,876.5C 1593.29,871.374 1595.62,866.041 1597.5,860.5C 1601.64,856.978 1604.81,852.644 1607,847.5C 1609.48,844.551 1612.32,841.884 1615.5,839.5C 1619.13,832.245 1623.13,825.245 1627.5,818.5C 1630.33,811.208 1633.16,803.874 1636,796.5C 1641.27,791.893 1644.93,786.226 1647,779.5C 1648.98,776.659 1650.81,773.659 1652.5,770.5C 1652.76,767.008 1653.09,763.508 1653.5,760C 1657.02,756.813 1660.19,753.313 1663,749.5C 1667.91,739.8 1672.08,729.8 1675.5,719.5C 1677.39,716.956 1679.23,716.956 1681,719.5C 1682.99,715.173 1684.49,710.673 1685.5,706C 1690.36,698.427 1694.86,690.594 1699,682.5C 1701.47,674.084 1704.14,665.751 1707,657.5C 1708.96,656.111 1710.79,654.611 1712.5,653C 1718.31,637.519 1725.48,622.686 1734,608.5C 1736.12,600.123 1740.12,592.789 1746,586.5C 1749.63,577.364 1752.96,568.031 1756,558.5C 1762.21,550.714 1765.21,541.714 1765,531.5C 1771.04,526.451 1776.04,520.451 1780,513.5C 1785.31,503.289 1790.48,492.955 1795.5,482.5C 1804.73,473.661 1813.73,464.661 1822.5,455.5 Z"/></g>
<g><path style="opacity:0.913" fill="#fefffe" d="M 1366.5,653.5 C 1371.69,655.161 1374.52,658.828 1375,664.5C 1374.91,671.983 1375.08,679.15 1375.5,686C 1373.69,691.626 1372.53,697.459 1372,703.5C 1367.38,716.229 1363.71,729.229 1361,742.5C 1360.33,743.167 1359.67,743.833 1359,744.5C 1358.2,755.175 1357.54,765.842 1357,776.5C 1353.88,784.07 1350.22,791.403 1346,798.5C 1345.21,802.091 1345.38,805.591 1346.5,809C 1336.44,831.41 1328.61,854.576 1323,878.5C 1322.58,879.672 1321.91,880.672 1321,881.5C 1319.84,888.14 1318.84,894.807 1318,901.5C 1316.47,908.576 1313.8,915.243 1310,921.5C 1309,927.833 1308,934.167 1307,940.5C 1306.05,945.185 1304.55,949.685 1302.5,954C 1302.83,954.333 1303.17,954.667 1303.5,955C 1301.97,960.101 1301.63,965.268 1302.5,970.5C 1304.36,971.528 1305.69,973.028 1306.5,975C 1310.26,975.411 1313.26,974.078 1315.5,971C 1328.25,966.25 1337.08,957.417 1342,944.5C 1343.58,943.139 1345.42,942.472 1347.5,942.5C 1349.07,939.221 1350.74,935.888 1352.5,932.5C 1354.04,931.253 1355.54,931.253 1357,932.5C 1358.96,930.089 1360.79,927.589 1362.5,925C 1364.22,923.441 1366.22,922.608 1368.5,922.5C 1368.34,921.127 1368.51,919.793 1369,918.5C 1371.31,914.902 1373.48,911.236 1375.5,907.5C 1385.94,898.587 1395.94,889.253 1405.5,879.5C 1413.26,872.951 1421.93,867.951 1431.5,864.5C 1435.4,865.361 1437.9,867.695 1439,871.5C 1440.82,888.871 1435.99,904.204 1424.5,917.5C 1423.13,922.344 1421.46,927.011 1419.5,931.5C 1418.45,931.351 1417.45,931.517 1416.5,932C 1414.09,933.955 1411.59,935.789 1409,937.5C 1404.28,948.385 1397.78,958.051 1389.5,966.5C 1387.67,967.248 1386,968.248 1384.5,969.5C 1380.08,975.869 1375.42,982.036 1370.5,988C 1369.21,988.49 1367.87,988.657 1366.5,988.5C 1363.58,993.395 1360.75,998.395 1358,1003.5C 1353.72,1009.05 1348.22,1012.72 1341.5,1014.5C 1335.1,1029.4 1324.43,1040.24 1309.5,1047C 1306.59,1049.74 1304.25,1052.91 1302.5,1056.5C 1298.09,1058.91 1293.43,1060.58 1288.5,1061.5C 1284.79,1065.04 1281.63,1069.04 1279,1073.5C 1277.59,1075.41 1275.75,1076.75 1273.5,1077.5C 1266.54,1070.37 1259.37,1063.37 1252,1056.5C 1249.16,1045.15 1246.99,1033.49 1245.5,1021.5C 1247.93,1006.86 1250.93,992.36 1254.5,978C 1253.6,969.955 1254.1,961.788 1256,953.5C 1256.67,952.833 1257.33,952.167 1258,951.5C 1258.48,947.469 1259.15,943.469 1260,939.5C 1266.1,920.796 1271.43,901.796 1276,882.5C 1277.32,879.861 1278.65,877.194 1280,874.5C 1281.83,864.94 1283.16,855.273 1284,845.5C 1289.97,826.971 1295.8,808.304 1301.5,789.5C 1300.88,786.156 1299.88,782.989 1298.5,780C 1300.25,776.4 1301.42,772.566 1302,768.5C 1303.77,765.574 1305.44,762.574 1307,759.5C 1307.28,752.644 1308.78,746.144 1311.5,740C 1311.7,733.716 1312.7,727.716 1314.5,722C 1313.48,721.481 1312.82,720.647 1312.5,719.5C 1314.72,715.573 1316.39,711.406 1317.5,707C 1316.46,695.12 1319.29,683.954 1326,673.5C 1328.4,671.188 1330.9,669.022 1333.5,667C 1342.96,665.229 1351.29,661.229 1358.5,655C 1361.36,654.817 1364.03,654.317 1366.5,653.5 Z"/></g>
<g><path style="opacity:0.919" fill="#fefffe" d="M 998.5,672.5 C 1004.63,672.343 1010.8,672.676 1017,673.5C 1018.38,686.641 1020.21,699.474 1022.5,712C 1019.54,716.75 1016.2,721.25 1012.5,725.5C 1011.76,731.851 1010.93,738.184 1010,744.5C 1006.63,751.851 1003.3,759.184 1000,766.5C 997.426,778.85 994.759,791.184 992,803.5C 987.52,813.057 983.187,822.724 979,832.5C 976.111,844.134 973.111,855.801 970,867.5C 964.076,884.388 957.743,901.055 951,917.5C 949.935,923.894 948.601,930.227 947,936.5C 938.749,958.393 933.416,981.06 931,1004.5C 929.473,1006.22 928.473,1008.22 928,1010.5C 927.95,1014.86 927.117,1019.03 925.5,1023C 925.833,1024 926.167,1025 926.5,1026C 923.681,1044.71 924.348,1062.88 928.5,1080.5C 931.932,1083.4 935.599,1085.73 939.5,1087.5C 939.5,1088.5 939.5,1089.5 939.5,1090.5C 943.032,1091.33 946.365,1092 949.5,1092.5C 959.712,1089.71 970.378,1087.71 981.5,1086.5C 991.492,1082.25 1001.33,1077.25 1011,1071.5C 1017.46,1069.38 1023.96,1067.38 1030.5,1065.5C 1033.02,1062.82 1035.68,1060.32 1038.5,1058C 1050.12,1053.84 1061.79,1049.84 1073.5,1046C 1076.14,1043.36 1078.81,1040.69 1081.5,1038C 1090.45,1033.46 1099.78,1030.13 1109.5,1028C 1119.39,1019.06 1131.06,1013.89 1144.5,1012.5C 1144.5,1011.5 1144.5,1010.5 1144.5,1009.5C 1149.67,1007.87 1155.01,1006.54 1160.5,1005.5C 1163.41,1003.93 1166.07,1002.1 1168.5,1000C 1171.23,999.995 1173.23,998.829 1174.5,996.5C 1176.07,995.691 1177.74,995.357 1179.5,995.5C 1179.5,994.5 1179.5,993.5 1179.5,992.5C 1185.9,991.136 1192.23,989.469 1198.5,987.5C 1206.55,976.4 1217.39,969.4 1231,966.5C 1233.72,966.373 1236.55,966.873 1239.5,968C 1244.01,973.9 1245.18,980.4 1243,987.5C 1239.45,1003.88 1229.95,1015.21 1214.5,1021.5C 1206.46,1029.86 1196.79,1035.69 1185.5,1039C 1183.06,1040.96 1180.4,1042.62 1177.5,1044C 1171.65,1045.27 1165.98,1047.1 1160.5,1049.5C 1159.53,1051.63 1158.37,1053.63 1157,1055.5C 1149.97,1062.2 1143.3,1069.2 1137,1076.5C 1136.82,1073.12 1136.32,1069.78 1135.5,1066.5C 1132.68,1069.82 1129.68,1072.98 1126.5,1076C 1114.83,1079.4 1103.5,1083.73 1092.5,1089C 1086.04,1093.88 1080.04,1099.22 1074.5,1105C 1067.71,1105.96 1062.71,1109.46 1059.5,1115.5C 1054.54,1119.81 1048.88,1122.81 1042.5,1124.5C 1039.52,1123.27 1036.52,1123.27 1033.5,1124.5C 1025.73,1130.22 1017.06,1134.05 1007.5,1136C 1001.91,1140.18 996.241,1144.18 990.5,1148C 976.968,1152.17 963.302,1156.17 949.5,1160C 942.663,1160.5 935.663,1160.5 928.5,1160C 923.077,1162.36 917.577,1164.53 912,1166.5C 909.387,1164.89 907.054,1162.89 905,1160.5C 901.41,1162.57 897.577,1163.4 893.5,1163C 872.883,1140.97 863.883,1114.63 866.5,1084C 866.923,1077.5 867.256,1071.16 867.5,1065C 867,1064.5 866.5,1064 866,1063.5C 865.779,1058.78 865.279,1054.11 864.5,1049.5C 865.145,1048.35 865.978,1047.35 867,1046.5C 870.055,1036.28 873.722,1026.28 878,1016.5C 878.942,1010.2 879.609,1003.86 880,997.5C 880.87,996.892 881.37,996.059 881.5,995C 881.652,990.06 881.652,985.06 881.5,980C 883.241,976.256 885.741,973.09 889,970.5C 891.015,964.138 892.515,957.638 893.5,951C 896.1,945.528 897.6,939.695 898,933.5C 901.79,924.878 905.456,916.211 909,907.5C 911.638,898.181 914.305,888.847 917,879.5C 920.014,861.432 923.68,843.432 928,825.5C 930.025,822.783 931.525,819.783 932.5,816.5C 933.242,815.713 934.075,815.047 935,814.5C 939.466,800.164 942.632,785.497 944.5,770.5C 945.618,767.564 947.285,765.064 949.5,763C 947.813,761.147 946.813,758.981 946.5,756.5C 950.604,747.643 954.104,738.643 957,729.5C 958.873,725.416 961.04,721.416 963.5,717.5C 962.689,716.784 962.022,715.95 961.5,715C 961.735,712.648 961.901,710.148 962,707.5C 974.418,695.911 986.585,684.245 998.5,672.5 Z"/></g>
<g><path style="opacity:0.92" fill="#fefffe" d="M 627.5,849.5 C 632.249,850.086 636.915,850.253 641.5,850C 643.48,852.164 645.813,853.664 648.5,854.5C 648.5,855.5 648.5,856.5 648.5,857.5C 649.873,857.343 651.207,857.51 652.5,858C 655.974,861.138 659.474,864.305 663,867.5C 663.56,872.025 665.227,876.025 668,879.5C 668.706,883.364 669.539,887.197 670.5,891C 670.289,894.421 670.289,897.921 670.5,901.5C 669.343,905.714 669.01,909.881 669.5,914C 667.299,919.566 664.966,925.066 662.5,930.5C 662.987,931.446 663.32,932.446 663.5,933.5C 662.049,942.407 660.549,951.073 659,959.5C 656.657,961.344 654.49,963.344 652.5,965.5C 649.07,972.456 646.07,979.623 643.5,987C 636.766,997.653 629.933,1008.15 623,1018.5C 622,1022.83 621,1027.17 620,1031.5C 606.245,1046.59 591.912,1060.92 577,1074.5C 572.124,1082.46 565.791,1089.13 558,1094.5C 556.189,1095.08 554.355,1095.58 552.5,1096C 547.394,1101.03 542.394,1106.2 537.5,1111.5C 532.487,1112.53 527.821,1114.36 523.5,1117C 519.352,1120.31 515.352,1123.81 511.5,1127.5C 506.671,1129.22 502.504,1128.22 499,1124.5C 496.542,1132.66 493.876,1140.66 491,1148.5C 489.054,1150.23 487.221,1152.06 485.5,1154C 482.777,1163.51 479.277,1172.67 475,1181.5C 472.277,1191.83 470.611,1202.17 470,1212.5C 468.667,1213.17 467.667,1214.17 467,1215.5C 464.931,1223.87 462.765,1232.2 460.5,1240.5C 460.536,1242.94 461.369,1244.94 463,1246.5C 463.333,1250.17 463.667,1253.83 464,1257.5C 466.386,1258.76 468.219,1260.6 469.5,1263C 473.474,1264 477.474,1264.83 481.5,1265.5C 482.386,1266.32 482.719,1267.32 482.5,1268.5C 488.992,1266.9 495.659,1265.74 502.5,1265C 507.927,1262.79 513.26,1260.29 518.5,1257.5C 521.852,1253.31 525.686,1249.65 530,1246.5C 533.605,1240.34 537.438,1234.34 541.5,1228.5C 548.458,1224.05 555.292,1219.38 562,1214.5C 568.925,1203.58 577.259,1193.91 587,1185.5C 590.667,1179.17 594.333,1172.83 598,1166.5C 599.011,1165.66 600.178,1165.33 601.5,1165.5C 601.351,1164.45 601.517,1163.45 602,1162.5C 608.643,1156.76 616.143,1152.43 624.5,1149.5C 625.167,1149.83 625.833,1150.17 626.5,1150.5C 632.954,1163.53 633.788,1176.86 629,1190.5C 620.107,1204.84 611.773,1219.51 604,1234.5C 601.577,1237.25 599.577,1240.25 598,1243.5C 596.667,1244.17 595.333,1244.83 594,1245.5C 590.223,1251.65 586.723,1257.98 583.5,1264.5C 565.872,1273.46 553.539,1287.12 546.5,1305.5C 542.58,1306.93 538.58,1308.26 534.5,1309.5C 531.81,1312.18 528.81,1314.52 525.5,1316.5C 524.26,1320.19 522.26,1323.36 519.5,1326C 517.153,1326.44 514.819,1326.94 512.5,1327.5C 509.872,1329.49 507.205,1331.49 504.5,1333.5C 502.258,1337.91 499.425,1341.91 496,1345.5C 495.517,1346.45 495.351,1347.45 495.5,1348.5C 491.381,1348.35 488.381,1346.35 486.5,1342.5C 485.5,1342.17 484.5,1341.83 483.5,1341.5C 477.886,1344.26 472.053,1345.26 466,1344.5C 462.282,1345.89 458.448,1346.89 454.5,1347.5C 452.714,1347.3 451.381,1346.47 450.5,1345C 442.996,1345.35 435.996,1343.68 429.5,1340C 425.233,1334.68 422.9,1328.84 422.5,1322.5C 421.449,1321.12 420.116,1320.12 418.5,1319.5C 417.701,1313.5 417.034,1307.5 416.5,1301.5C 413.05,1301.43 411.717,1299.59 412.5,1296C 412.844,1292.11 413.511,1288.28 414.5,1284.5C 414.519,1276.67 414.519,1268.84 414.5,1261C 414.439,1259.29 415.106,1257.96 416.5,1257C 413.956,1255.23 413.956,1253.39 416.5,1251.5C 416.069,1250.71 415.735,1249.87 415.5,1249C 417.797,1238.54 419.964,1228.04 422,1217.5C 425.156,1210.37 427.49,1203.03 429,1195.5C 429.667,1194.83 430.333,1194.17 431,1193.5C 433.197,1186.49 434.697,1179.32 435.5,1172C 437.114,1167.99 438.947,1164.16 441,1160.5C 441.387,1153 443.72,1146.33 448,1140.5C 450.238,1133.57 452.738,1126.74 455.5,1120C 456.991,1109.63 458.658,1099.3 460.5,1089C 462.6,1083.73 464.933,1078.57 467.5,1073.5C 471.342,1069.33 474.342,1064.67 476.5,1059.5C 477.076,1052.27 477.742,1045.11 478.5,1038C 477.978,1037.44 477.645,1036.77 477.5,1036C 479.086,1024.47 482.586,1013.64 488,1003.5C 491.221,1000.27 492.721,1000.94 492.5,1005.5C 494.743,1006.31 497.076,1006.98 499.5,1007.5C 500.833,1007.33 502.167,1007.17 503.5,1007C 504.88,1005.07 506.38,1003.24 508,1001.5C 513.756,988.654 520.09,975.987 527,963.5C 529.503,959.177 532.503,955.177 536,951.5C 538.912,944.31 541.579,936.976 544,929.5C 545.579,927.959 547.413,926.792 549.5,926C 551.146,921.825 554.146,918.992 558.5,917.5C 563.681,907.483 570.848,899.15 580,892.5C 583.946,883.949 589.779,876.949 597.5,871.5C 599.167,869.167 600.833,866.833 602.5,864.5C 610.576,858.935 618.91,853.935 627.5,849.5 Z M 620.5,922.5 C 621.748,923.334 622.415,924.667 622.5,926.5C 621.183,931.437 620.016,936.437 619,941.5C 611.558,951.72 605.725,962.72 601.5,974.5C 597.941,975.425 594.607,976.758 591.5,978.5C 591.058,982.154 590.724,985.821 590.5,989.5C 588.508,989.328 586.842,989.995 585.5,991.5C 582.888,995.63 580.721,999.963 579,1004.5C 575.273,1003.34 571.773,1004.01 568.5,1006.5C 566.202,1010.1 564.202,1013.77 562.5,1017.5C 559.097,1018.36 555.764,1019.53 552.5,1021C 550.741,1024.1 549.074,1027.27 547.5,1030.5C 543.226,1033.35 539.226,1035.19 535.5,1036C 539.717,1029.31 543.551,1022.48 547,1015.5C 547.333,1013.83 547.667,1012.17 548,1010.5C 550.291,1008.18 552.624,1005.84 555,1003.5C 560.323,993.523 565.656,983.523 571,973.5C 580.677,963.343 588.51,952.01 594.5,939.5C 600.829,937.994 605.829,934.494 609.5,929C 613.623,927.328 617.289,925.162 620.5,922.5 Z"/></g>
<g><path style="opacity:0.927" fill="#fefffe" d="M 274.5,918.5 C 278.602,920.199 282.935,921.366 287.5,922C 289.977,923.643 292.31,925.476 294.5,927.5C 299.419,925.147 304.585,923.48 310,922.5C 313.167,925 316,927.833 318.5,931C 322.377,931.729 326.211,931.562 330,930.5C 334.133,931.4 338.3,932.067 342.5,932.5C 342.383,934.484 343.05,936.15 344.5,937.5C 349.346,935.705 354.346,934.705 359.5,934.5C 359.827,937.676 359.827,940.843 359.5,944C 360.603,947.436 362.936,949.436 366.5,950C 368.21,952.036 369.877,954.036 371.5,956C 371.217,960.622 370.217,964.955 368.5,969C 369.574,969.739 370.241,970.739 370.5,972C 360.475,1008.2 339.808,1036.7 308.5,1057.5C 307.772,1059.19 306.772,1060.69 305.5,1062C 302.711,1062.24 300.044,1062.91 297.5,1064C 293.649,1068.68 289.649,1073.18 285.5,1077.5C 281.528,1078.09 277.861,1079.42 274.5,1081.5C 270.495,1084.2 266.495,1086.87 262.5,1089.5C 257.943,1095.55 253.609,1101.72 249.5,1108C 237.744,1114.07 226.744,1121.4 216.5,1130C 212.514,1132.49 208.181,1134.16 203.5,1135C 196.854,1139.65 190.854,1144.98 185.5,1151C 180.331,1152.38 175.331,1154.21 170.5,1156.5C 166.767,1161.19 162.434,1165.19 157.5,1168.5C 161.76,1169.61 165.927,1170.94 170,1172.5C 174.694,1168.4 180.194,1165.74 186.5,1164.5C 187.167,1164.83 187.833,1165.17 188.5,1165.5C 191.916,1163.77 195.582,1162.77 199.5,1162.5C 200.442,1162.61 201.275,1162.94 202,1163.5C 210.71,1158.4 219.543,1153.73 228.5,1149.5C 229.799,1150.09 230.632,1151.09 231,1152.5C 238.603,1149.02 246.437,1147.02 254.5,1146.5C 256.811,1147.21 258.978,1148.21 261,1149.5C 263.815,1146.4 267.315,1144.4 271.5,1143.5C 275.815,1144.52 279.982,1145.18 284,1145.5C 288.824,1142.68 293.49,1139.68 298,1136.5C 303.355,1138.41 308.855,1138.41 314.5,1136.5C 315.167,1136.83 315.833,1137.17 316.5,1137.5C 321.934,1133.41 327.434,1133.07 333,1136.5C 337.7,1135.97 342.367,1135.64 347,1135.5C 353.827,1139.3 360.66,1139.3 367.5,1135.5C 368.524,1136.85 369.857,1137.52 371.5,1137.5C 371.5,1138.5 371.5,1139.5 371.5,1140.5C 373.124,1140.36 374.29,1141.03 375,1142.5C 375.333,1142.17 375.667,1141.83 376,1141.5C 378.74,1142.28 381.574,1142.78 384.5,1143C 389.339,1148.17 394.506,1153.01 400,1157.5C 402.788,1160.45 404.955,1163.78 406.5,1167.5C 406.77,1170.76 406.437,1174.09 405.5,1177.5C 401.139,1189.23 396.472,1200.9 391.5,1212.5C 387.361,1217.81 383.027,1222.97 378.5,1228C 376.316,1232.4 374.316,1236.9 372.5,1241.5C 369.827,1243.18 367.161,1244.84 364.5,1246.5C 360.283,1253.65 355.95,1260.65 351.5,1267.5C 338.929,1273.56 328.596,1282.39 320.5,1294C 313.76,1296.53 307.093,1299.36 300.5,1302.5C 297.148,1308.16 293.482,1313.49 289.5,1318.5C 287.927,1319.66 286.261,1320.66 284.5,1321.5C 280.112,1322.09 275.779,1322.92 271.5,1324C 268.805,1327.03 266.138,1330.03 263.5,1333C 260.23,1333.99 256.897,1334.83 253.5,1335.5C 248.83,1340.67 243.83,1345.5 238.5,1350C 236.975,1351.01 235.308,1351.51 233.5,1351.5C 233.719,1352.68 233.386,1353.68 232.5,1354.5C 227.631,1357.43 222.631,1360.1 217.5,1362.5C 216.549,1361.67 215.549,1361.51 214.5,1362C 207.295,1370.37 199.628,1378.2 191.5,1385.5C 190.052,1383.64 188.385,1382.97 186.5,1383.5C 184.345,1385.99 181.678,1387.66 178.5,1388.5C 175.506,1387.25 172.506,1387.25 169.5,1388.5C 166.701,1391.73 163.368,1394.23 159.5,1396C 154.231,1397.48 148.898,1398.65 143.5,1399.5C 139.325,1404.84 134.992,1410 130.5,1415C 126.542,1415.59 122.876,1414.76 119.5,1412.5C 116.148,1415.01 112.648,1417.34 109,1419.5C 107.523,1418.56 106.523,1417.22 106,1415.5C 104.691,1417.98 102.858,1419.98 100.5,1421.5C 97.7316,1423.79 94.7316,1425.79 91.5,1427.5C 87.5829,1429.04 83.7496,1430.71 80,1432.5C 79.228,1432.36 78.5613,1432.02 78,1431.5C 73.562,1436.92 69.562,1442.59 66,1448.5C 61.4745,1452.52 56.6412,1456.19 51.5,1459.5C 49.5787,1460.64 47.5787,1460.81 45.5,1460C 44.1487,1458.38 42.482,1457.22 40.5,1456.5C 39.4473,1451.17 39.2807,1445.83 40,1440.5C 35.933,1442.97 32.0996,1445.81 28.5,1449C 27.552,1449.48 26.552,1449.65 25.5,1449.5C 26.3883,1442.95 28.055,1436.61 30.5,1430.5C 30.0414,1423.85 29.3747,1417.01 28.5,1410C 29.7724,1400.02 31.7724,1390.18 34.5,1380.5C 34.3918,1379.56 34.0585,1378.72 33.5,1378C 36.1401,1369.01 39.3068,1360.18 43,1351.5C 44.0258,1338.26 47.6925,1325.92 54,1314.5C 54.1684,1303.94 56.5017,1293.94 61,1284.5C 61.1851,1277.25 61.6851,1270.09 62.5,1263C 61.6034,1258.81 62.27,1254.81 64.5,1251C 59.7752,1247.2 55.2752,1243.03 51,1238.5C 48.6273,1234.17 47.4607,1229.67 47.5,1225C 55.5104,1205.84 67.1771,1189.34 82.5,1175.5C 83.4637,1168.56 83.797,1161.56 83.5,1154.5C 86.465,1153.54 88.465,1151.54 89.5,1148.5C 88.9279,1142.79 90.2612,1137.45 93.5,1132.5C 92.0255,1125.83 93.0255,1119.33 96.5,1113C 97.0855,1107.96 98.2522,1103.12 100,1098.5C 100.76,1092.52 100.26,1086.69 98.5,1081C 99.4791,1079.22 99.1458,1077.55 97.5,1076C 100.013,1070.88 100.68,1065.55 99.5,1060C 100.8,1052.67 102.466,1045.51 104.5,1038.5C 103.189,1031.88 103.189,1025.21 104.5,1018.5C 104.333,1017.5 104.167,1016.5 104,1015.5C 101.109,1021.97 97.1085,1022.97 92,1018.5C 89.8173,1023.76 86.1507,1025.76 81,1024.5C 77.5467,1029.3 73.38,1033.3 68.5,1036.5C 66.5056,1033.85 65.5056,1030.85 65.5,1027.5C 64.448,1027.35 63.448,1027.52 62.5,1028C 59.1517,1032.53 55.1517,1036.03 50.5,1038.5C 46.2053,1036.66 42.2053,1034.16 38.5,1031C 37.1387,1029.42 36.472,1027.58 36.5,1025.5C 35.5,1025.5 34.5,1025.5 33.5,1025.5C 24.9321,1006.31 28.2655,989.474 43.5,975C 44.7659,974.691 45.9326,974.191 47,973.5C 52.9376,963.893 60.7709,956.393 70.5,951C 73.7107,950.202 76.7107,950.702 79.5,952.5C 85.0846,950.559 90.5846,948.559 96,946.5C 100.732,947.028 105.232,946.028 109.5,943.5C 112.5,943.5 115.5,943.5 118.5,943.5C 124.415,940.375 130.415,937.541 136.5,935C 140.167,934.667 143.833,934.333 147.5,934C 148.025,933.308 148.692,932.808 149.5,932.5C 154.075,934.52 158.908,935.853 164,936.5C 171.356,935.895 178.856,935.062 186.5,934C 187.749,932.176 188.915,932.343 190,934.5C 192.825,932.812 195.991,931.979 199.5,932C 200.716,930.26 202.382,929.26 204.5,929C 207.859,928.229 211.192,927.395 214.5,926.5C 215.167,926.833 215.833,927.167 216.5,927.5C 221.581,924.27 226.915,922.27 232.5,921.5C 238.74,924.121 245.073,926.455 251.5,928.5C 260.364,927.401 268.031,924.068 274.5,918.5 Z M 233.5,993.5 C 238.427,994.129 242.761,996.129 246.5,999.5C 249.75,998.246 252.417,996.246 254.5,993.5C 255.197,995.385 256.197,995.718 257.5,994.5C 262.743,997.407 267.409,1001.07 271.5,1005.5C 275.641,1003.7 278.308,1000.7 279.5,996.5C 284.412,995.555 289.078,996.555 293.5,999.5C 295.782,998.777 298.116,998.443 300.5,998.5C 301.023,1001.03 302.023,1003.36 303.5,1005.5C 291.732,1016.94 278.732,1026.94 264.5,1035.5C 262.349,1036.91 260.682,1038.74 259.5,1041C 254.123,1043.83 248.789,1046.67 243.5,1049.5C 236.248,1055.58 229.914,1062.42 224.5,1070C 220.569,1070.07 217.236,1071.4 214.5,1074C 211.996,1078.34 208.662,1081.84 204.5,1084.5C 203.614,1085.32 203.281,1086.32 203.5,1087.5C 197.529,1090.34 191.862,1093.84 186.5,1098C 181.602,1098.72 176.935,1100.06 172.5,1102C 170.239,1104.77 168.739,1107.94 168,1111.5C 165.387,1113.37 163.221,1115.7 161.5,1118.5C 155.514,1121.5 149.514,1124.5 143.5,1127.5C 145.225,1123.51 147.059,1119.51 149,1115.5C 149.436,1113.15 149.936,1110.82 150.5,1108.5C 150.189,1104.54 149.856,1100.54 149.5,1096.5C 154.748,1083.77 157.081,1070.93 156.5,1058C 159.773,1051.89 162.44,1045.55 164.5,1039C 164.095,1038.05 163.428,1037.39 162.5,1037C 165.044,1035.44 165.044,1033.94 162.5,1032.5C 162.977,1031.52 163.643,1030.69 164.5,1030C 163.426,1029.26 162.759,1028.26 162.5,1027C 164.616,1019.77 166.782,1012.61 169,1005.5C 169.414,1005.04 169.914,1004.71 170.5,1004.5C 174.002,1006.26 177.668,1006.76 181.5,1006C 184.148,1001.73 187.982,999.235 193,998.5C 195.118,1001.09 197.451,1003.42 200,1005.5C 205.849,1001.83 212.016,998.829 218.5,996.5C 221.769,996.393 225.102,996.393 228.5,996.5C 230.759,996.216 232.426,995.216 233.5,993.5 Z M 296.5,1199.5 C 298.478,1201.39 300.478,1203.39 302.5,1205.5C 306.81,1204.01 310.81,1202.01 314.5,1199.5C 319.557,1202.2 324.89,1204.03 330.5,1205C 331.292,1208.91 332.959,1209.41 335.5,1206.5C 337.424,1206.57 339.424,1206.9 341.5,1207.5C 337.584,1213 333.918,1218.66 330.5,1224.5C 320.9,1228.43 313.9,1235.1 309.5,1244.5C 307.457,1246.51 305.457,1248.51 303.5,1250.5C 298.891,1251.55 294.558,1253.22 290.5,1255.5C 286.527,1262.47 281.193,1268.14 274.5,1272.5C 264.365,1277.24 254.032,1281.4 243.5,1285C 237.841,1289.96 232.174,1294.96 226.5,1300C 222.789,1300.84 219.123,1301.84 215.5,1303C 204.949,1311.96 193.949,1320.46 182.5,1328.5C 176.332,1332.16 169.832,1333.82 163,1333.5C 155.688,1338.98 148.854,1344.98 142.5,1351.5C 141.833,1351.17 141.167,1350.83 140.5,1350.5C 133.514,1352.16 126.514,1353.83 119.5,1355.5C 115.571,1358.79 111.404,1361.79 107,1364.5C 102.597,1366.4 98.0968,1368.06 93.5,1369.5C 92.8333,1369.33 92.1667,1369.17 91.5,1369C 94.0223,1364.57 94.0223,1360.24 91.5,1356C 95.2481,1349.09 98.4148,1341.92 101,1334.5C 101.391,1329.26 102.225,1324.1 103.5,1319C 103.009,1316.79 103.009,1314.79 103.5,1313C 102.106,1312.04 101.439,1310.71 101.5,1309C 104.111,1302.46 105.777,1295.63 106.5,1288.5C 108.172,1284.36 110.005,1280.36 112,1276.5C 111.052,1261.27 114.552,1247.11 122.5,1234C 126.604,1230.73 129.938,1231.57 132.5,1236.5C 133.192,1235.97 133.692,1235.31 134,1234.5C 137.697,1234.62 141.364,1234.62 145,1234.5C 150.602,1232.26 156.435,1230.92 162.5,1230.5C 162.281,1229.32 162.614,1228.32 163.5,1227.5C 165.514,1230.39 168.18,1231.55 171.5,1231C 179.782,1225.58 188.448,1220.91 197.5,1217C 204.5,1216.67 211.5,1216.33 218.5,1216C 231.086,1212.87 243.586,1209.71 256,1206.5C 264.045,1211.21 271.212,1210.04 277.5,1203C 278.833,1202.33 280.167,1202.33 281.5,1203C 284.091,1205.74 287.091,1206.07 290.5,1204C 292.859,1202.76 294.859,1201.26 296.5,1199.5 Z"/></g>
<g><path style="opacity:0.036" fill="#fefffe" d="M 440.5,952.5 C 441.239,952.369 441.906,952.536 442.5,953C 436.23,962.87 429.23,972.203 421.5,981C 415.182,983.113 408.848,984.78 402.5,986C 414.676,974.11 427.343,962.944 440.5,952.5 Z"/></g>
<g><path style="opacity:0.874" fill="#fefffe" d="M 1408.5,1190.5 C 1407.13,1190.34 1405.79,1190.51 1404.5,1191C 1402.84,1192.84 1400.84,1194.01 1398.5,1194.5C 1398.5,1195.5 1398.5,1196.5 1398.5,1197.5C 1397.17,1197.5 1395.83,1197.5 1394.5,1197.5C 1394.17,1190.83 1393.83,1190.83 1393.5,1197.5C 1391.36,1197.3 1389.7,1196.3 1388.5,1194.5C 1385.35,1195.24 1382.68,1196.74 1380.5,1199C 1374.43,1199.51 1368.43,1200.35 1362.5,1201.5C 1362.5,1203.17 1362.5,1204.83 1362.5,1206.5C 1360.55,1206.77 1359.05,1206.11 1358,1204.5C 1355.19,1205.84 1352.36,1206.17 1349.5,1205.5C 1339.69,1209.09 1329.69,1212.09 1319.5,1214.5C 1320.59,1215.61 1320.59,1216.61 1319.5,1217.5C 1318.06,1216.94 1316.56,1216.6 1315,1216.5C 1312.51,1217.34 1310.01,1218 1307.5,1218.5C 1307.35,1222.31 1305.35,1223.98 1301.5,1223.5C 1301.5,1222.5 1301.5,1221.5 1301.5,1220.5C 1296.51,1219.58 1294.17,1221.58 1294.5,1226.5C 1293.5,1226.5 1292.5,1226.5 1291.5,1226.5C 1291.5,1225.5 1291.5,1224.5 1291.5,1223.5C 1288.05,1222.76 1286.38,1224.09 1286.5,1227.5C 1285.5,1227.5 1284.5,1227.5 1283.5,1227.5C 1283.72,1226.32 1283.39,1225.32 1282.5,1224.5C 1280.24,1226.54 1277.74,1228.21 1275,1229.5C 1273.63,1229.16 1272.47,1228.49 1271.5,1227.5C 1265.64,1229.8 1259.64,1231.8 1253.5,1233.5C 1250.89,1234.27 1248.22,1234.6 1245.5,1234.5C 1246.11,1237.97 1244.78,1239.97 1241.5,1240.5C 1241.66,1239.13 1241.49,1237.79 1241,1236.5C 1239.99,1237.34 1238.82,1237.67 1237.5,1237.5C 1237.5,1238.83 1237.5,1240.17 1237.5,1241.5C 1236.17,1241.5 1234.83,1241.5 1233.5,1241.5C 1233.5,1240.5 1233.5,1239.5 1233.5,1238.5C 1231.2,1239.31 1228.87,1240.14 1226.5,1241C 1227.45,1241.48 1228.45,1241.65 1229.5,1241.5C 1229.52,1244.12 1228.19,1245.45 1225.5,1245.5C 1223.02,1243.84 1220.35,1243.34 1217.5,1244C 1216.99,1246.57 1215.83,1248.73 1214,1250.5C 1212.52,1249.56 1211.52,1248.22 1211,1246.5C 1210.1,1247.7 1208.93,1248.53 1207.5,1249C 1208.83,1249.67 1208.83,1250.33 1207.5,1251C 1204.57,1251.78 1201.74,1251.61 1199,1250.5C 1198.51,1251.79 1198.34,1253.13 1198.5,1254.5C 1195.17,1254.5 1191.83,1254.5 1188.5,1254.5C 1189.17,1258.68 1187.67,1260.01 1184,1258.5C 1180.9,1259.74 1177.73,1260.74 1174.5,1261.5C 1174.76,1260.02 1174.43,1258.69 1173.5,1257.5C 1173.09,1258.56 1173.09,1259.89 1173.5,1261.5C 1172.5,1261.5 1171.5,1261.5 1170.5,1261.5C 1170.5,1260.5 1170.5,1259.5 1170.5,1258.5C 1164.36,1260.75 1158.02,1262.42 1151.5,1263.5C 1145.06,1266.72 1138.4,1269.38 1131.5,1271.5C 1132.32,1272.39 1133.32,1272.72 1134.5,1272.5C 1134.5,1273.5 1134.5,1274.5 1134.5,1275.5C 1132.5,1275.5 1130.5,1275.5 1128.5,1275.5C 1128.65,1274.45 1128.48,1273.45 1128,1272.5C 1125.24,1273.8 1122.41,1274.96 1119.5,1276C 1120.79,1276.49 1122.13,1276.66 1123.5,1276.5C 1123.5,1277.5 1123.5,1278.5 1123.5,1279.5C 1119.68,1279.02 1116.35,1280.02 1113.5,1282.5C 1112.38,1280.96 1112.71,1279.62 1114.5,1278.5C 1113.83,1278.17 1113.17,1277.83 1112.5,1277.5C 1104.34,1281.12 1096,1284.29 1087.5,1287C 1088.34,1288.01 1088.67,1289.18 1088.5,1290.5C 1087.5,1290.5 1086.5,1290.5 1085.5,1290.5C 1085.5,1289.5 1085.5,1288.5 1085.5,1287.5C 1072.29,1292.14 1058.96,1296.47 1045.5,1300.5C 1045.5,1301.83 1045.5,1303.17 1045.5,1304.5C 1044.5,1304.5 1043.5,1304.5 1042.5,1304.5C 1042.5,1303.5 1042.5,1302.5 1042.5,1301.5C 1034.51,1304 1026.51,1306.5 1018.5,1309C 1014.76,1310.7 1011.1,1312.53 1007.5,1314.5C 1006.33,1314.08 1005.33,1313.41 1004.5,1312.5C 999.915,1315.23 994.915,1316.56 989.5,1316.5C 989.917,1321.07 987.917,1322.57 983.5,1321C 983,1320.5 982.5,1320 982,1319.5C 980.029,1323.04 977.196,1324.21 973.5,1323C 973.943,1324.52 973.276,1325.69 971.5,1326.5C 970.614,1325.68 970.281,1324.68 970.5,1323.5C 963.371,1325.2 956.371,1327.37 949.5,1330C 948.23,1330.9 947.23,1332.07 946.5,1333.5C 943.947,1333.35 941.447,1333.35 939,1333.5C 938.51,1334.79 938.343,1336.13 938.5,1337.5C 936.5,1338.17 934.5,1338.83 932.5,1339.5C 932.5,1338.5 932.5,1337.5 932.5,1336.5C 933.675,1336.72 934.675,1336.39 935.5,1335.5C 934.833,1335.17 934.167,1334.83 933.5,1334.5C 931.61,1335.61 929.61,1336.45 927.5,1337C 928.337,1338.01 928.67,1339.18 928.5,1340.5C 927.178,1340.67 926.011,1340.34 925,1339.5C 923.667,1342.17 922.333,1342.17 921,1339.5C 920.781,1340.94 920.281,1342.27 919.5,1343.5C 916.497,1344.09 913.497,1344.75 910.5,1345.5C 906.789,1348.86 902.456,1350.86 897.5,1351.5C 897.5,1350.5 897.5,1349.5 897.5,1348.5C 896.167,1348.5 894.833,1348.5 893.5,1348.5C 893.785,1350.29 893.452,1351.95 892.5,1353.5C 891.035,1352.39 890.035,1352.89 889.5,1355C 885.186,1358.08 880.52,1358.91 875.5,1357.5C 873.227,1358.38 872.227,1360.04 872.5,1362.5C 862.577,1365.14 852.91,1368.47 843.5,1372.5C 829.398,1379.13 814.898,1384.8 800,1389.5C 798.284,1389.25 796.784,1388.59 795.5,1387.5C 794.92,1389.64 793.92,1391.47 792.5,1393C 788.826,1394.31 785.159,1394.48 781.5,1393.5C 779.953,1397.84 777.453,1398.51 774,1395.5C 772.991,1397.02 772.491,1398.69 772.5,1400.5C 764.331,1401.73 756.331,1403.39 748.5,1405.5C 748.5,1406.5 748.5,1407.5 748.5,1408.5C 742.223,1410.16 735.889,1411.49 729.5,1412.5C 729.5,1413.5 729.5,1414.5 729.5,1415.5C 727.208,1415.76 725.041,1415.42 723,1414.5C 720.602,1419.18 716.935,1420.52 712,1418.5C 711.517,1419.45 711.351,1420.45 711.5,1421.5C 702.59,1424.27 693.756,1427.27 685,1430.5C 684.667,1430.17 684.333,1429.83 684,1429.5C 683.517,1430.45 683.351,1431.45 683.5,1432.5C 680.833,1432.83 678.167,1433.17 675.5,1433.5C 675.719,1432.32 675.386,1431.32 674.5,1430.5C 673.77,1432.34 673.103,1434.17 672.5,1436C 669.136,1436.73 665.803,1437.56 662.5,1438.5C 657.515,1443.2 651.682,1444.87 645,1443.5C 644.51,1444.79 644.343,1446.13 644.5,1447.5C 642.167,1447.5 639.833,1447.5 637.5,1447.5C 637.5,1448.5 637.5,1449.5 637.5,1450.5C 634.746,1450.78 632.08,1451.45 629.5,1452.5C 620.777,1457.02 611.777,1461.18 602.5,1465C 600.888,1465.72 599.388,1465.55 598,1464.5C 595.654,1469.36 592.32,1470.36 588,1467.5C 586.989,1468.34 585.822,1468.67 584.5,1468.5C 584.167,1470.5 583.833,1472.5 583.5,1474.5C 579.749,1474.99 576.083,1475.32 572.5,1475.5C 572.5,1476.83 572.5,1478.17 572.5,1479.5C 564.259,1481.96 556.259,1484.96 548.5,1488.5C 547.476,1487.15 546.143,1486.48 544.5,1486.5C 544.5,1487.5 544.5,1488.5 544.5,1489.5C 542.248,1490.33 540.081,1490.33 538,1489.5C 531.854,1493.99 525.021,1496.99 517.5,1498.5C 482.71,1513.65 448.043,1528.98 413.5,1544.5C 410.243,1545.24 407.076,1546.24 404,1547.5C 396.529,1551.45 389.029,1555.29 381.5,1559C 376.842,1559.32 373.176,1561.32 370.5,1565C 368.443,1565.31 366.443,1565.31 364.5,1565C 364.273,1566.14 363.94,1567.3 363.5,1568.5C 360.414,1567.04 358.08,1567.87 356.5,1571C 353.628,1571.31 350.795,1571.81 348,1572.5C 340.808,1576.34 333.308,1579.34 325.5,1581.5C 325.5,1582.5 325.5,1583.5 325.5,1584.5C 321.279,1583.81 317.613,1584.81 314.5,1587.5C 311.893,1588.32 309.226,1588.82 306.5,1589C 304.395,1592.35 301.562,1593.19 298,1591.5C 295.33,1592.22 293.83,1593.89 293.5,1596.5C 287.043,1596.86 280.709,1597.86 274.5,1599.5C 274.5,1600.83 274.5,1602.17 274.5,1603.5C 271.031,1603.37 267.531,1603.37 264,1603.5C 263.751,1604.62 263.251,1605.62 262.5,1606.5C 259.187,1607.16 256.187,1608.49 253.5,1610.5C 251.264,1610.82 248.931,1610.82 246.5,1610.5C 238.634,1613.17 231.134,1616.5 224,1620.5C 222.908,1619.7 221.741,1619.04 220.5,1618.5C 218.104,1620.25 215.77,1622.08 213.5,1624C 191.829,1630.71 170.329,1638.88 149,1648.5C 148.055,1648.09 147.388,1647.43 147,1646.5C 141.661,1649.12 136.161,1651.45 130.5,1653.5C 130.5,1654.83 130.5,1656.17 130.5,1657.5C 128.738,1657.64 127.071,1657.31 125.5,1656.5C 118.695,1659.76 112.028,1663.26 105.5,1667C 103.187,1667.66 100.854,1668.16 98.5,1668.5C 98.321,1670.61 97.321,1672.27 95.5,1673.5C 91.2037,1673.82 87.537,1675.49 84.5,1678.5C 83.6143,1679.32 83.281,1680.32 83.5,1681.5C 80.2475,1680.75 76.9141,1680.75 73.5,1681.5C 73.5,1682.83 73.5,1684.17 73.5,1685.5C 66.8861,1687.16 60.5527,1689.32 54.5,1692C 50.6084,1694.44 46.9417,1697.1 43.5,1700C 38.7959,1700.65 34.1292,1700.48 29.5,1699.5C 29.33,1698.18 29.6634,1697.01 30.5,1696C 28.8659,1695.51 27.1992,1695.34 25.5,1695.5C 25.4882,1688.42 24.8216,1681.42 23.5,1674.5C 25.451,1674.23 26.951,1674.89 28,1676.5C 29.8449,1674.65 31.8449,1674.32 34,1675.5C 36.124,1674.77 38.2906,1674.11 40.5,1673.5C 41.4287,1674.69 41.762,1676.02 41.5,1677.5C 43.5,1677.5 45.5,1677.5 47.5,1677.5C 47.3505,1678.55 47.5172,1679.55 48,1680.5C 48.7724,1679.15 49.9391,1678.32 51.5,1678C 47.1873,1674.65 47.854,1673.15 53.5,1673.5C 53.3433,1674.87 53.51,1676.21 54,1677.5C 54.4955,1675.53 54.6621,1673.53 54.5,1671.5C 57.5,1671.83 58.8333,1670.5 58.5,1667.5C 59.8221,1667.33 60.9887,1667.66 62,1668.5C 62.6188,1664.03 64.9521,1662.69 69,1664.5C 74.7694,1661.28 80.6027,1657.94 86.5,1654.5C 86.0234,1653.07 85.3567,1651.74 84.5,1650.5C 82.5592,1653.81 79.8926,1654.48 76.5,1652.5C 76.5433,1649.91 77.5433,1647.75 79.5,1646C 84.1032,1643.53 88.7699,1641.36 93.5,1639.5C 93.5,1640.5 93.5,1641.5 93.5,1642.5C 90.8338,1642.07 89.6671,1643.07 90,1645.5C 92.0408,1646.42 94.2075,1646.76 96.5,1646.5C 96.5,1645.5 96.5,1644.5 96.5,1643.5C 97.552,1643.65 98.552,1643.48 99.5,1643C 97.9751,1641.99 96.3084,1641.49 94.5,1641.5C 95.1667,1639.5 95.8333,1637.5 96.5,1635.5C 98.861,1635.33 101.194,1634.99 103.5,1634.5C 103.281,1633.32 103.614,1632.32 104.5,1631.5C 106.991,1629.94 109.657,1628.94 112.5,1628.5C 112.281,1629.68 112.614,1630.68 113.5,1631.5C 117.306,1629.96 119.306,1631.29 119.5,1635.5C 120.5,1635.5 121.5,1635.5 122.5,1635.5C 122.5,1634.5 122.5,1633.5 122.5,1632.5C 127.167,1631.17 131.833,1629.83 136.5,1628.5C 136.5,1627.17 136.5,1625.83 136.5,1624.5C 140.897,1624.58 145.23,1624.08 149.5,1623C 148.549,1622.28 148.383,1621.45 149,1620.5C 151.778,1621.69 153.278,1620.69 153.5,1617.5C 159.503,1618.99 163.17,1616.66 164.5,1610.5C 167.833,1610.5 171.167,1610.5 174.5,1610.5C 174.5,1609.17 174.5,1607.83 174.5,1606.5C 177.119,1606.23 179.619,1606.56 182,1607.5C 184.127,1602.05 182.46,1601.05 177,1604.5C 175.175,1604.06 173.342,1603.72 171.5,1603.5C 171.421,1602.07 171.754,1600.74 172.5,1599.5C 176.016,1597.24 179.682,1595.24 183.5,1593.5C 190.723,1590.26 198.223,1587.93 206,1586.5C 207.3,1587.71 208.8,1588.37 210.5,1588.5C 210.176,1585.32 211.51,1584.15 214.5,1585C 215.59,1587.28 215.256,1589.45 213.5,1591.5C 212.914,1591.29 212.414,1590.96 212,1590.5C 210.654,1593.25 209.32,1593.58 208,1591.5C 206.084,1592.93 203.917,1593.93 201.5,1594.5C 203.805,1595.23 205.638,1596.56 207,1598.5C 207.483,1597.55 207.649,1596.55 207.5,1595.5C 218.274,1593.78 228.607,1590.61 238.5,1586C 237.552,1585.52 236.552,1585.35 235.5,1585.5C 235.5,1584.5 235.5,1583.5 235.5,1582.5C 233.738,1582.64 232.071,1582.31 230.5,1581.5C 229.552,1584.72 228.219,1585.05 226.5,1582.5C 225.614,1583.32 225.281,1584.32 225.5,1585.5C 223.167,1585.5 220.833,1585.5 218.5,1585.5C 219.102,1582.18 220.935,1579.85 224,1578.5C 227.491,1581.17 229.324,1580.17 229.5,1575.5C 231.752,1574.67 233.919,1574.67 236,1575.5C 236.483,1574.55 236.649,1573.55 236.5,1572.5C 239.786,1571.79 243.119,1571.46 246.5,1571.5C 246.657,1575.77 244.657,1578.27 240.5,1579C 239.001,1581.83 239.835,1583.66 243,1584.5C 248.141,1583.61 252.474,1581.28 256,1577.5C 258.735,1578.01 261.569,1578.01 264.5,1577.5C 264.215,1575.71 264.548,1574.05 265.5,1572.5C 272.484,1572.63 279.151,1570.96 285.5,1567.5C 286.262,1566.37 286.929,1565.21 287.5,1564C 289.443,1564.31 291.443,1564.31 293.5,1564C 294.756,1563.58 295.423,1562.75 295.5,1561.5C 297.143,1561.52 298.476,1560.85 299.5,1559.5C 301.62,1560.87 302.62,1560.2 302.5,1557.5C 305.588,1557.36 308.255,1556.36 310.5,1554.5C 310.351,1555.55 310.517,1556.55 311,1557.5C 314.799,1555.07 318.966,1553.73 323.5,1553.5C 323.682,1550.39 325.016,1547.89 327.5,1546C 326.552,1545.52 325.552,1545.35 324.5,1545.5C 324.5,1544.5 324.5,1543.5 324.5,1542.5C 325.158,1541.6 325.824,1540.6 326.5,1539.5C 329.573,1538.6 332.573,1537.6 335.5,1536.5C 335.675,1539.33 334.342,1541 331.5,1541.5C 329.924,1543.98 328.924,1546.65 328.5,1549.5C 338.123,1546.75 347.456,1543.25 356.5,1539C 362.932,1534.45 369.932,1530.95 377.5,1528.5C 377.5,1527.5 377.5,1526.5 377.5,1525.5C 380.939,1524 384.606,1522.66 388.5,1521.5C 389.707,1518.89 391.707,1517.23 394.5,1516.5C 392.041,1515.67 389.541,1515.01 387,1514.5C 385.404,1515.5 383.904,1516.66 382.5,1518C 380.866,1518.49 379.199,1518.66 377.5,1518.5C 377.33,1517.18 377.663,1516.01 378.5,1515C 382.67,1513.16 387.003,1512 391.5,1511.5C 391.993,1509.19 392.326,1506.86 392.5,1504.5C 395.486,1504.56 397.82,1503.4 399.5,1501C 401.769,1500.24 403.936,1500.41 406,1501.5C 406.523,1499.78 407.523,1498.44 409,1497.5C 414.178,1495.08 419.345,1492.75 424.5,1490.5C 424.281,1491.68 424.614,1492.68 425.5,1493.5C 426.004,1490.66 427.671,1489.32 430.5,1489.5C 430.351,1490.55 430.517,1491.55 431,1492.5C 432.091,1490.28 433.257,1488.12 434.5,1486C 437.2,1485.75 439.867,1485.75 442.5,1486C 444.1,1484.39 445.433,1482.56 446.5,1480.5C 447.325,1479.61 448.325,1479.28 449.5,1479.5C 450.167,1483.5 450.833,1483.5 451.5,1479.5C 453.199,1479.66 454.866,1479.49 456.5,1479C 460.858,1476.13 465.525,1473.97 470.5,1472.5C 471.5,1473.5 472.5,1474.5 473.5,1475.5C 472.349,1476.73 471.183,1476.73 470,1475.5C 468.5,1476.33 467.333,1477.5 466.5,1479C 458.278,1481.45 450.611,1484.95 443.5,1489.5C 442.614,1490.32 442.281,1491.32 442.5,1492.5C 440.876,1492.64 439.71,1491.97 439,1490.5C 438.218,1493.08 436.718,1495.08 434.5,1496.5C 435.37,1498.53 436.87,1499.86 439,1500.5C 442.63,1497.37 446.797,1495.37 451.5,1494.5C 467.97,1487.02 484.303,1479.35 500.5,1471.5C 501.386,1470.68 501.719,1469.68 501.5,1468.5C 505.215,1468.58 508.881,1468.24 512.5,1467.5C 511.247,1464.88 509.914,1462.21 508.5,1459.5C 507.643,1458.57 506.643,1457.91 505.5,1457.5C 505.047,1453.57 506.714,1451.07 510.5,1450C 516.529,1447.27 522.696,1444.77 529,1442.5C 530.553,1439.7 532.72,1439.04 535.5,1440.5C 538.213,1438.14 541.213,1436.14 544.5,1434.5C 555.445,1429.11 566.612,1424.11 578,1419.5C 578.95,1420.02 579.784,1420.69 580.5,1421.5C 582.577,1420.01 583.577,1418.01 583.5,1415.5C 588.083,1413.2 593.083,1411.87 598.5,1411.5C 598.281,1410.32 598.614,1409.32 599.5,1408.5C 603.544,1406.2 607.878,1404.7 612.5,1404C 613.047,1403.08 613.713,1402.24 614.5,1401.5C 644.358,1388.81 674.358,1376.47 704.5,1364.5C 705.768,1365.43 707.101,1365.59 708.5,1365C 711.385,1360.68 714.385,1360.52 717.5,1364.5C 718.429,1363.31 718.762,1361.98 718.5,1360.5C 726.617,1356.07 735.284,1352.9 744.5,1351C 745.833,1350.33 746.833,1349.33 747.5,1348C 761.663,1343.62 775.663,1338.62 789.5,1333C 791.568,1332.31 793.568,1332.48 795.5,1333.5C 796.429,1332.31 796.762,1330.98 796.5,1329.5C 799.271,1329.58 801.937,1329.08 804.5,1328C 808.889,1326.15 813.223,1324.15 817.5,1322C 819.847,1321.67 822.181,1321.83 824.5,1322.5C 824.323,1320.02 825.323,1318.19 827.5,1317C 834.471,1316.23 840.638,1313.73 846,1309.5C 848.462,1308.84 850.962,1308.51 853.5,1308.5C 853.5,1307.5 853.5,1306.5 853.5,1305.5C 855.833,1305.5 858.167,1305.5 860.5,1305.5C 860.351,1306.55 860.517,1307.55 861,1308.5C 861.495,1306.53 861.662,1304.53 861.5,1302.5C 865.08,1303.08 868.08,1302.08 870.5,1299.5C 877.452,1297.71 884.118,1295.04 890.5,1291.5C 893.475,1290.86 896.475,1290.36 899.5,1290C 900.167,1288.67 901.167,1287.67 902.5,1287C 906.981,1285.01 911.647,1283.51 916.5,1282.5C 919.791,1281.27 922.791,1279.6 925.5,1277.5C 926.086,1277.71 926.586,1278.04 927,1278.5C 930.023,1277.45 933.023,1276.45 936,1275.5C 938.145,1275.4 939.979,1276.06 941.5,1277.5C 943.111,1276.68 943.778,1275.35 943.5,1273.5C 944.5,1273.5 945.5,1273.5 946.5,1273.5C 946.5,1272.5 946.5,1271.5 946.5,1270.5C 948.124,1270.36 949.29,1271.03 950,1272.5C 950.833,1271.67 951.667,1270.83 952.5,1270C 956.052,1269.8 959.219,1268.64 962,1266.5C 976.17,1262.96 990.003,1258.96 1003.5,1254.5C 1003.28,1255.68 1003.61,1256.68 1004.5,1257.5C 1005.08,1255.36 1006.08,1253.53 1007.5,1252C 1011.09,1251.21 1014.59,1251.38 1018,1252.5C 1018.49,1251.21 1018.66,1249.87 1018.5,1248.5C 1020.14,1248.48 1021.48,1249.15 1022.5,1250.5C 1023.27,1248.73 1024.6,1247.73 1026.5,1247.5C 1028.13,1248.05 1029.8,1248.38 1031.5,1248.5C 1031.5,1247.5 1031.5,1246.5 1031.5,1245.5C 1032.5,1245.5 1033.5,1245.5 1034.5,1245.5C 1034.35,1246.55 1034.52,1247.55 1035,1248.5C 1035.49,1246.87 1035.66,1245.2 1035.5,1243.5C 1040.62,1243.74 1044.96,1242.07 1048.5,1238.5C 1049.67,1238.92 1050.67,1239.59 1051.5,1240.5C 1052.39,1239.68 1052.72,1238.68 1052.5,1237.5C 1054.14,1237.29 1055.64,1237.62 1057,1238.5C 1058.38,1235.94 1059.88,1235.94 1061.5,1238.5C 1063,1237.25 1064.67,1236.25 1066.5,1235.5C 1067.25,1234.26 1067.58,1232.93 1067.5,1231.5C 1068.5,1231.5 1069.5,1231.5 1070.5,1231.5C 1070.5,1232.5 1070.5,1233.5 1070.5,1234.5C 1072.5,1234.17 1074.5,1233.83 1076.5,1233.5C 1076.28,1232.32 1076.61,1231.32 1077.5,1230.5C 1081.22,1232.34 1083.55,1231.34 1084.5,1227.5C 1086.37,1227.95 1088.2,1228.62 1090,1229.5C 1091.88,1228.75 1093.71,1227.91 1095.5,1227C 1096.34,1225.99 1096.67,1224.82 1096.5,1223.5C 1100.85,1223.01 1105.18,1222.68 1109.5,1222.5C 1109.33,1221.18 1109.66,1220.01 1110.5,1219C 1114.92,1219.1 1119.25,1218.93 1123.5,1218.5C 1123.5,1216.83 1123.5,1215.17 1123.5,1213.5C 1125.86,1213.66 1128.19,1213.5 1130.5,1213C 1134.26,1210.24 1138.26,1208.08 1142.5,1206.5C 1142.5,1207.5 1142.5,1208.5 1142.5,1209.5C 1147.02,1209.05 1151.35,1207.88 1155.5,1206C 1156.34,1204.99 1156.67,1203.82 1156.5,1202.5C 1160.94,1201.44 1165.27,1200.11 1169.5,1198.5C 1169.35,1199.55 1169.52,1200.55 1170,1201.5C 1171.34,1199.24 1172.84,1197.07 1174.5,1195C 1178.15,1194.5 1181.82,1194.33 1185.5,1194.5C 1185.82,1198.3 1186.82,1198.47 1188.5,1195C 1189.79,1194.51 1191.13,1194.34 1192.5,1194.5C 1192.28,1193.32 1192.61,1192.32 1193.5,1191.5C 1196.97,1189.68 1200.47,1188.02 1204,1186.5C 1204.95,1186.91 1205.61,1187.57 1206,1188.5C 1207.38,1185.94 1208.88,1185.94 1210.5,1188.5C 1211.43,1187.31 1211.76,1185.98 1211.5,1184.5C 1213.77,1184.72 1215.94,1185.38 1218,1186.5C 1223.02,1184.91 1227.69,1182.57 1232,1179.5C 1234.43,1181.88 1235.93,1181.21 1236.5,1177.5C 1238.45,1177.23 1239.95,1177.89 1241,1179.5C 1241.48,1178.55 1241.65,1177.55 1241.5,1176.5C 1245.59,1174.61 1249.92,1173.61 1254.5,1173.5C 1254.5,1172.5 1254.5,1171.5 1254.5,1170.5C 1256.45,1170.23 1257.95,1170.89 1259,1172.5C 1259.48,1171.55 1259.65,1170.55 1259.5,1169.5C 1262.93,1169.24 1266.27,1168.58 1269.5,1167.5C 1269.35,1168.55 1269.52,1169.55 1270,1170.5C 1270.86,1167.15 1273.02,1165.48 1276.5,1165.5C 1278.32,1165.65 1279.82,1166.32 1281,1167.5C 1285.23,1165.92 1289.73,1164.92 1294.5,1164.5C 1295.13,1162.74 1296.13,1161.24 1297.5,1160C 1300.81,1159.94 1303.65,1158.77 1306,1156.5C 1308.99,1158.54 1312.16,1158.87 1315.5,1157.5C 1314.12,1155.84 1314.46,1154.5 1316.5,1153.5C 1324.85,1150.33 1333.35,1147.66 1342,1145.5C 1344.09,1144.55 1346.09,1144.55 1348,1145.5C 1348.48,1144.55 1348.65,1143.55 1348.5,1142.5C 1352.16,1142.05 1355.83,1141.55 1359.5,1141C 1364.88,1139.21 1370.22,1137.38 1375.5,1135.5C 1376.44,1135.61 1377.28,1135.94 1378,1136.5C 1382.6,1135.11 1387.1,1133.28 1391.5,1131C 1394.76,1130.22 1397.93,1130.38 1401,1131.5C 1401.25,1130.38 1401.75,1129.38 1402.5,1128.5C 1406.87,1128.17 1410.87,1126.83 1414.5,1124.5C 1415.65,1124.82 1416.48,1125.48 1417,1126.5C 1417.48,1125.55 1417.65,1124.55 1417.5,1123.5C 1421.24,1123.34 1425.08,1123.34 1429,1123.5C 1431.58,1120.96 1434.58,1118.96 1438,1117.5C 1439,1118.17 1440,1118.83 1441,1119.5C 1444.12,1116.62 1447.78,1114.62 1452,1113.5C 1459.72,1111.89 1467.22,1109.56 1474.5,1106.5C 1475.67,1106.92 1476.67,1107.59 1477.5,1108.5C 1478.17,1107.5 1478.83,1106.5 1479.5,1105.5C 1480.09,1105.71 1480.59,1106.04 1481,1106.5C 1482.33,1105.51 1483.66,1104.51 1485,1103.5C 1503.23,1097.65 1521.73,1092.48 1540.5,1088C 1541.83,1087.33 1542.83,1086.33 1543.5,1085C 1562.56,1080.38 1581.56,1075.55 1600.5,1070.5C 1600.28,1071.68 1600.61,1072.68 1601.5,1073.5C 1602.26,1072.37 1602.93,1071.21 1603.5,1070C 1606.11,1069.85 1608.44,1069.02 1610.5,1067.5C 1613.56,1071.14 1615.89,1070.98 1617.5,1067C 1619.44,1066.7 1621.11,1065.86 1622.5,1064.5C 1623.68,1065.85 1624.68,1065.69 1625.5,1064C 1634.38,1062.35 1643.21,1060.51 1652,1058.5C 1652.87,1058.74 1653.71,1059.07 1654.5,1059.5C 1657.95,1055.69 1662.11,1054.69 1667,1056.5C 1667.48,1055.55 1667.65,1054.55 1667.5,1053.5C 1673.92,1053.35 1680.09,1052.02 1686,1049.5C 1687.72,1049.75 1689.22,1050.41 1690.5,1051.5C 1691.6,1049.47 1693.26,1048.13 1695.5,1047.5C 1726.76,1041.21 1757.76,1033.71 1788.5,1025C 1802.62,1022.3 1816.79,1019.8 1831,1017.5C 1834.29,1017.82 1837.46,1018.49 1840.5,1019.5C 1840.5,1018.5 1840.5,1017.5 1840.5,1016.5C 1844.53,1016.5 1848.53,1016.84 1852.5,1017.5C 1852.5,1016.17 1852.5,1014.83 1852.5,1013.5C 1854.2,1013.38 1855.87,1013.05 1857.5,1012.5C 1859.33,1013.75 1861.33,1014.42 1863.5,1014.5C 1863.5,1013.17 1863.5,1011.83 1863.5,1010.5C 1866.48,1010.04 1869.48,1009.7 1872.5,1009.5C 1872.34,1010.87 1872.51,1012.21 1873,1013.5C 1873.5,1011.53 1873.66,1009.53 1873.5,1007.5C 1875.49,1007.33 1877.16,1008 1878.5,1009.5C 1879.29,1008.76 1879.95,1007.92 1880.5,1007C 1914.93,1001.29 1949.6,997.787 1984.5,996.5C 1985.88,999.658 1986.54,1002.99 1986.5,1006.5C 1982.96,1006.94 1979.63,1007.94 1976.5,1009.5C 1976.12,1011.66 1976.78,1013.33 1978.5,1014.5C 1979.85,1013.05 1981.52,1012.38 1983.5,1012.5C 1982.87,1015.49 1982.7,1018.49 1983,1021.5C 1984.86,1023.3 1986.86,1024.97 1989,1026.5C 1990.41,1025.33 1991.57,1025.67 1992.5,1027.5C 1993.17,1026.83 1993.83,1026.17 1994.5,1025.5C 1995.59,1026.73 1996.92,1027.56 1998.5,1028C 2002.15,1028.5 2005.82,1028.67 2009.5,1028.5C 2009.63,1030.2 2010.29,1031.7 2011.5,1033C 2010.83,1034 2010.17,1035 2009.5,1036C 2011.11,1037.48 2012.11,1039.32 2012.5,1041.5C 2010.83,1041.5 2009.17,1041.5 2007.5,1041.5C 2007.47,1045.48 2009.14,1046.48 2012.5,1044.5C 2012.69,1050.15 2009.85,1053.15 2004,1053.5C 2003.23,1053.36 2002.56,1053.02 2002,1052.5C 1991.7,1058.28 1980.87,1062.61 1969.5,1065.5C 1942.18,1069.89 1914.85,1072.89 1887.5,1074.5C 1887.5,1073.5 1887.5,1072.5 1887.5,1071.5C 1888.96,1070.12 1887.29,1070.12 1882.5,1071.5C 1881.05,1072.85 1880.38,1074.52 1880.5,1076.5C 1861.4,1079.15 1842.57,1082.82 1824,1087.5C 1817.16,1088.45 1810.32,1089.45 1803.5,1090.5C 1787.57,1093.75 1771.73,1097.42 1756,1101.5C 1752.26,1102.41 1748.59,1102.41 1745,1101.5C 1743.29,1102.31 1742.46,1103.64 1742.5,1105.5C 1739.15,1105.33 1735.82,1105.5 1732.5,1106C 1727.04,1108.02 1721.37,1109.52 1715.5,1110.5C 1714.56,1110.39 1713.72,1110.06 1713,1109.5C 1711.64,1110.7 1710.14,1111.7 1708.5,1112.5C 1703.9,1112.89 1699.56,1114.06 1695.5,1116C 1692.8,1116.61 1690.13,1116.44 1687.5,1115.5C 1680.39,1118.32 1673.22,1120.65 1666,1122.5C 1665.28,1121.94 1664.44,1121.61 1663.5,1121.5C 1654.2,1125.14 1644.54,1127.48 1634.5,1128.5C 1630.5,1129.86 1626.66,1131.53 1623,1133.5C 1621.83,1132.49 1620.67,1131.49 1619.5,1130.5C 1618.74,1131.63 1618.07,1132.79 1617.5,1134C 1613.32,1135.64 1609.32,1135.47 1605.5,1133.5C 1602.64,1134.07 1600.98,1135.74 1600.5,1138.5C 1598.05,1138.38 1596.05,1137.38 1594.5,1135.5C 1593.83,1135.83 1593.17,1136.17 1592.5,1136.5C 1593.84,1140.44 1593,1141.11 1590,1138.5C 1588.76,1140.54 1586.93,1141.71 1584.5,1142C 1579.38,1143.4 1574.22,1144.57 1569,1145.5C 1568.13,1145.26 1567.29,1144.93 1566.5,1144.5C 1565.23,1146.18 1563.56,1147.35 1561.5,1148C 1549.26,1150.89 1537.26,1154.39 1525.5,1158.5C 1522.17,1159.05 1518.84,1159.55 1515.5,1160C 1500.66,1164.55 1485.99,1169.71 1471.5,1175.5C 1467.44,1177.15 1463.94,1176.48 1461,1173.5C 1459.79,1174.07 1458.63,1174.74 1457.5,1175.5C 1458.75,1177.04 1458.75,1178.54 1457.5,1180C 1455.5,1180.5 1453.5,1181 1451.5,1181.5C 1450.35,1181.18 1449.52,1180.52 1449,1179.5C 1448.5,1180.5 1448,1181.5 1447.5,1182.5C 1444.01,1183.16 1440.84,1184.49 1438,1186.5C 1436.13,1187.09 1434.46,1186.42 1433,1184.5C 1431,1186.75 1428.5,1187.75 1425.5,1187.5C 1425.72,1186.32 1425.39,1185.32 1424.5,1184.5C 1423.53,1186.4 1423.2,1188.4 1423.5,1190.5C 1421.83,1190.5 1420.17,1190.5 1418.5,1190.5C 1418.72,1189.32 1418.39,1188.32 1417.5,1187.5C 1416.83,1188.83 1416.17,1190.17 1415.5,1191.5C 1414.61,1190.68 1414.28,1189.68 1414.5,1188.5C 1411.92,1188.03 1409.92,1188.69 1408.5,1190.5 Z M 1866.5,1021.5 C 1866.5,1022.5 1866.5,1023.5 1866.5,1024.5C 1867.5,1024.5 1868.5,1024.5 1869.5,1024.5C 1869.58,1027.01 1868.58,1029.01 1866.5,1030.5C 1865.95,1029 1865.95,1027.33 1866.5,1025.5C 1865.17,1025.5 1863.83,1025.5 1862.5,1025.5C 1863.53,1023.91 1864.87,1022.58 1866.5,1021.5 Z M 1862.5,1025.5 C 1862.5,1026.5 1862.5,1027.5 1862.5,1028.5C 1861.5,1028.5 1860.5,1028.5 1859.5,1028.5C 1859.17,1032.5 1858.83,1032.5 1858.5,1028.5C 1857.17,1028.5 1855.83,1028.5 1854.5,1028.5C 1854.54,1030.85 1853.38,1032.18 1851,1032.5C 1846.64,1032.3 1843.48,1030.3 1841.5,1026.5C 1844.04,1025.57 1846.54,1024.57 1849,1023.5C 1853.43,1023.63 1857.93,1024.3 1862.5,1025.5 Z M 1833.5,1028.5 C 1835.34,1028.64 1835.67,1029.31 1834.5,1030.5C 1833.7,1030.04 1833.37,1029.38 1833.5,1028.5 Z M 1820.5,1032.5 C 1822.34,1032.64 1822.67,1033.31 1821.5,1034.5C 1820.7,1034.04 1820.37,1033.38 1820.5,1032.5 Z M 1735.5,1051.5 C 1737.34,1051.64 1737.67,1052.31 1736.5,1053.5C 1735.7,1053.04 1735.37,1052.38 1735.5,1051.5 Z M 1643.5,1070.5 C 1645.2,1070.34 1646.87,1070.51 1648.5,1071C 1647.49,1073.17 1645.82,1074.34 1643.5,1074.5C 1643.5,1073.17 1643.5,1071.83 1643.5,1070.5 Z M 1614.5,1081.5 C 1615.29,1081.78 1615.96,1082.28 1616.5,1083C 1615.18,1083.53 1614.52,1083.03 1614.5,1081.5 Z M 1603.5,1083.5 C 1604.77,1084.09 1606.1,1084.59 1607.5,1085C 1605.54,1085.84 1604.2,1085.34 1603.5,1083.5 Z M 1583.5,1090.5 C 1584.08,1089.23 1584.74,1089.23 1585.5,1090.5C 1585.03,1091.46 1584.36,1091.46 1583.5,1090.5 Z M 1571.5,1091.5 C 1575.3,1092.91 1575.3,1093.91 1571.5,1094.5C 1571.5,1093.5 1571.5,1092.5 1571.5,1091.5 Z M 1558.5,1095.5 C 1559.5,1095.5 1560.5,1095.5 1561.5,1095.5C 1561.78,1097.35 1561.11,1098.68 1559.5,1099.5C 1558.57,1098.31 1558.24,1096.98 1558.5,1095.5 Z M 1547.5,1096.5 C 1549.23,1096.84 1549.73,1097.84 1549,1099.5C 1547.96,1098.76 1547.46,1097.76 1547.5,1096.5 Z M 1572.5,1096.5 C 1574.34,1096.64 1574.67,1097.31 1573.5,1098.5C 1572.7,1098.04 1572.37,1097.38 1572.5,1096.5 Z M 1485.5,1116.5 C 1487.46,1116.95 1487.8,1117.95 1486.5,1119.5C 1485.61,1118.68 1485.28,1117.68 1485.5,1116.5 Z M 1476.5,1120.5 C 1478.34,1120.64 1478.67,1121.31 1477.5,1122.5C 1476.7,1122.04 1476.37,1121.38 1476.5,1120.5 Z M 1449.5,1126.5 C 1452.25,1128.5 1451.91,1130.17 1448.5,1131.5C 1446.89,1130.68 1446.22,1129.35 1446.5,1127.5C 1447.79,1127.74 1448.79,1127.4 1449.5,1126.5 Z M 1422.5,1133.5 C 1426.16,1133.35 1427.16,1134.85 1425.5,1138C 1424.55,1138.62 1423.72,1138.45 1423,1137.5C 1422.51,1136.21 1422.34,1134.87 1422.5,1133.5 Z M 1437.5,1134.5 C 1438.95,1133.39 1440.61,1133.22 1442.5,1134C 1443.52,1135.05 1443.68,1136.22 1443,1137.5C 1441.74,1135.39 1439.9,1134.39 1437.5,1134.5 Z M 1416.5,1135.5 C 1417.21,1134.6 1418.21,1134.26 1419.5,1134.5C 1419.04,1137.39 1419.71,1139.89 1421.5,1142C 1420.55,1142.48 1419.55,1142.65 1418.5,1142.5C 1419.01,1139.61 1418.34,1137.28 1416.5,1135.5 Z M 1383.5,1145.5 C 1386.96,1145.67 1387.29,1146.67 1384.5,1148.5C 1383.61,1147.68 1383.28,1146.68 1383.5,1145.5 Z M 1394.5,1149.5 C 1395.68,1149.28 1396.68,1149.61 1397.5,1150.5C 1395.95,1151.8 1394.95,1151.46 1394.5,1149.5 Z M 1357.5,1151.5 C 1358.76,1151.46 1359.76,1151.96 1360.5,1153C 1357.37,1155.26 1356.37,1154.76 1357.5,1151.5 Z M 1357.5,1160.5 C 1357.03,1159.31 1356.03,1158.64 1354.5,1158.5C 1350.85,1159.33 1347.18,1160 1343.5,1160.5C 1343.42,1161.93 1343.75,1163.26 1344.5,1164.5C 1342.29,1165.63 1339.96,1166.3 1337.5,1166.5C 1337.65,1164.06 1336.81,1163.39 1335,1164.5C 1334.51,1163.21 1334.34,1161.87 1334.5,1160.5C 1337.98,1159.44 1341.48,1158.44 1345,1157.5C 1346.01,1158.34 1347.18,1158.67 1348.5,1158.5C 1348.5,1157.5 1348.5,1156.5 1348.5,1155.5C 1349.5,1155.5 1350.5,1155.5 1351.5,1155.5C 1351.35,1154.45 1351.52,1153.45 1352,1152.5C 1353.03,1155.69 1355.19,1157.03 1358.5,1156.5C 1358.77,1158.1 1358.43,1159.43 1357.5,1160.5 Z M 1329.5,1160.5 C 1329.5,1162.83 1329.5,1165.17 1329.5,1167.5C 1330.68,1167.28 1331.68,1167.61 1332.5,1168.5C 1327.05,1170.4 1325.05,1168.74 1326.5,1163.5C 1325.5,1163.5 1324.5,1163.5 1323.5,1163.5C 1323.5,1162.5 1323.5,1161.5 1323.5,1160.5C 1325.5,1160.5 1327.5,1160.5 1329.5,1160.5 Z M 1323.5,1163.5 C 1322.7,1166.43 1322.37,1169.43 1322.5,1172.5C 1319.53,1173.39 1316.53,1173.05 1313.5,1171.5C 1314.71,1170.28 1314.71,1169.11 1313.5,1168C 1311.83,1167.67 1310.17,1167.33 1308.5,1167C 1310.58,1166.81 1312.58,1166.31 1314.5,1165.5C 1314.29,1164.91 1313.96,1164.41 1313.5,1164C 1315.02,1162.99 1316.69,1162.49 1318.5,1162.5C 1318.24,1163.98 1318.57,1165.31 1319.5,1166.5C 1320.39,1165.68 1320.72,1164.68 1320.5,1163.5C 1321.5,1163.5 1322.5,1163.5 1323.5,1163.5 Z M 1305.5,1167.5 C 1307.46,1167.95 1307.8,1168.95 1306.5,1170.5C 1305.61,1169.68 1305.28,1168.68 1305.5,1167.5 Z M 1290.5,1169.5 C 1291.4,1170.21 1291.74,1171.21 1291.5,1172.5C 1294.45,1172.78 1297.28,1172.44 1300,1171.5C 1301.83,1173.24 1301.66,1174.91 1299.5,1176.5C 1297.59,1177.35 1295.59,1177.68 1293.5,1177.5C 1293.5,1178.5 1293.5,1179.5 1293.5,1180.5C 1290.66,1180.39 1288.16,1179.39 1286,1177.5C 1284.4,1178.88 1282.57,1179.55 1280.5,1179.5C 1278.74,1176.66 1279.24,1174.33 1282,1172.5C 1282.74,1173.57 1283.74,1174.24 1285,1174.5C 1286.6,1173.12 1288.43,1172.45 1290.5,1172.5C 1290.5,1171.5 1290.5,1170.5 1290.5,1169.5 Z M 1274.5,1178.5 C 1275.04,1178.56 1275.38,1178.89 1275.5,1179.5C 1271.71,1181.42 1267.71,1181.92 1263.5,1181C 1267.24,1179.99 1270.91,1179.15 1274.5,1178.5 Z M 1249.5,1181.5 C 1250.8,1182.11 1252.13,1182.77 1253.5,1183.5C 1255.33,1182.25 1257.33,1181.58 1259.5,1181.5C 1258.96,1184.24 1259.96,1186.07 1262.5,1187C 1260.11,1187.57 1258.11,1188.74 1256.5,1190.5C 1253.85,1191.11 1251.19,1191.61 1248.5,1192C 1247.07,1192.47 1245.9,1193.3 1245,1194.5C 1244.69,1193.69 1244.19,1193.03 1243.5,1192.5C 1237.23,1196.81 1230.23,1199.14 1222.5,1199.5C 1218.28,1201.54 1213.95,1203.21 1209.5,1204.5C 1209.5,1203.5 1209.5,1202.5 1209.5,1201.5C 1206.66,1200.68 1204.33,1199.01 1202.5,1196.5C 1206.99,1194.78 1211.66,1194.12 1216.5,1194.5C 1216.5,1193.5 1216.5,1192.5 1216.5,1191.5C 1219.37,1191.91 1221.53,1190.91 1223,1188.5C 1223.48,1189.45 1223.65,1190.45 1223.5,1191.5C 1224.55,1191.65 1225.55,1191.48 1226.5,1191C 1227.82,1189.23 1229.48,1187.9 1231.5,1187C 1236.93,1186.51 1242.27,1185.51 1247.5,1184C 1248.76,1183.58 1249.42,1182.75 1249.5,1181.5 Z M 1177.5,1205.5 C 1179.23,1204.79 1180.9,1203.79 1182.5,1202.5C 1183.84,1204 1185.51,1204.67 1187.5,1204.5C 1187.5,1202.83 1187.5,1201.17 1187.5,1199.5C 1190.04,1200.68 1192.37,1202.34 1194.5,1204.5C 1195.01,1201.85 1196.34,1199.85 1198.5,1198.5C 1199.43,1199.69 1199.76,1201.02 1199.5,1202.5C 1201.17,1202.5 1202.83,1202.5 1204.5,1202.5C 1204.5,1203.5 1204.5,1204.5 1204.5,1205.5C 1202.8,1205.34 1201.13,1205.51 1199.5,1206C 1198.69,1207.71 1197.36,1208.54 1195.5,1208.5C 1195.5,1207.5 1195.5,1206.5 1195.5,1205.5C 1194.17,1205.5 1192.83,1205.5 1191.5,1205.5C 1191.33,1206.82 1191.66,1207.99 1192.5,1209C 1191.35,1209.64 1190.35,1210.48 1189.5,1211.5C 1188.83,1210.17 1188.17,1208.83 1187.5,1207.5C 1185.83,1208.67 1184.33,1210 1183,1211.5C 1182.5,1211.17 1182,1210.83 1181.5,1210.5C 1182.81,1209.74 1183.31,1208.74 1183,1207.5C 1181.56,1205.84 1179.72,1205.18 1177.5,1205.5 Z M 1177.5,1205.5 C 1176.99,1207.51 1176.82,1209.51 1177,1211.5C 1178.07,1212.19 1179.23,1212.69 1180.5,1213C 1177.5,1214.17 1174.5,1215.33 1171.5,1216.5C 1170.61,1215.68 1170.28,1214.68 1170.5,1213.5C 1169.5,1213.5 1168.5,1213.5 1167.5,1213.5C 1167.5,1215.17 1167.5,1216.83 1167.5,1218.5C 1164.41,1219.07 1161.41,1219.07 1158.5,1218.5C 1156.87,1220.45 1154.87,1221.79 1152.5,1222.5C 1152.22,1219.22 1152.55,1216.06 1153.5,1213C 1155.52,1211.78 1157.52,1211.62 1159.5,1212.5C 1161.8,1210.77 1164.3,1209.43 1167,1208.5C 1167.37,1209.91 1168.2,1210.91 1169.5,1211.5C 1171.07,1207.92 1173.73,1205.92 1177.5,1205.5 Z M 1152.5,1222.5 C 1150.34,1223.74 1148,1224.74 1145.5,1225.5C 1146.23,1223.4 1146.23,1221.4 1145.5,1219.5C 1143.87,1219.97 1142.7,1220.97 1142,1222.5C 1139.77,1221.11 1138.61,1219.11 1138.5,1216.5C 1141.57,1216.18 1144.57,1216.52 1147.5,1217.5C 1148.31,1219.07 1148.64,1220.74 1148.5,1222.5C 1149.83,1222.5 1151.17,1222.5 1152.5,1222.5 Z M 1130.5,1220.5 C 1132.17,1220.5 1133.83,1220.5 1135.5,1220.5C 1135.82,1223.57 1135.48,1226.57 1134.5,1229.5C 1133.57,1228.31 1133.24,1226.98 1133.5,1225.5C 1131.71,1225.79 1130.05,1225.45 1128.5,1224.5C 1129.85,1223.48 1130.52,1222.14 1130.5,1220.5 Z M 1053.5,1251.5 C 1053.5,1250.5 1053.5,1249.5 1053.5,1248.5C 1054.5,1248.5 1055.5,1248.5 1056.5,1248.5C 1056.5,1247.5 1056.5,1246.5 1056.5,1245.5C 1059.81,1244.37 1063.14,1244.37 1066.5,1245.5C 1066.5,1244.17 1066.5,1242.83 1066.5,1241.5C 1072.51,1242.33 1077.68,1240.66 1082,1236.5C 1083.6,1237.65 1085.27,1237.65 1087,1236.5C 1088.4,1234.6 1090.23,1233.27 1092.5,1232.5C 1097.12,1231.47 1101.79,1230.8 1106.5,1230.5C 1106.5,1229.5 1106.5,1228.5 1106.5,1227.5C 1109.17,1227.5 1111.83,1227.5 1114.5,1227.5C 1114.28,1226.32 1114.61,1225.32 1115.5,1224.5C 1116.52,1225.85 1117.86,1226.52 1119.5,1226.5C 1120.61,1221.37 1121.28,1221.37 1121.5,1226.5C 1123.14,1226.52 1124.48,1225.85 1125.5,1224.5C 1128.25,1227.05 1127.58,1228.05 1123.5,1227.5C 1123.33,1228.82 1123.66,1229.99 1124.5,1231C 1121.76,1233.27 1118.76,1235.1 1115.5,1236.5C 1114.83,1235.83 1114.17,1235.17 1113.5,1234.5C 1107.09,1237.21 1100.75,1240.21 1094.5,1243.5C 1087.37,1245.03 1080.37,1246.7 1073.5,1248.5C 1073.72,1249.68 1073.39,1250.68 1072.5,1251.5C 1072,1248.66 1070.33,1247.32 1067.5,1247.5C 1067.36,1249.12 1068.03,1250.29 1069.5,1251C 1065.46,1253.27 1061.13,1254.44 1056.5,1254.5C 1056.5,1253.5 1056.5,1252.5 1056.5,1251.5C 1055.5,1251.5 1054.5,1251.5 1053.5,1251.5 Z M 1053.5,1251.5 C 1052.79,1252.4 1051.79,1252.74 1050.5,1252.5C 1050.5,1253.5 1050.5,1254.5 1050.5,1255.5C 1051.5,1255.5 1052.5,1255.5 1053.5,1255.5C 1051.51,1258.33 1048.85,1259 1045.5,1257.5C 1043.83,1258.83 1042.17,1260.17 1040.5,1261.5C 1039.17,1258.83 1037.83,1258.83 1036.5,1261.5C 1033.81,1256.84 1035.15,1253.51 1040.5,1251.5C 1041.67,1252.49 1042.83,1253.49 1044,1254.5C 1046.16,1252.83 1048,1250.83 1049.5,1248.5C 1050.39,1249.32 1050.72,1250.32 1050.5,1251.5C 1051.5,1251.5 1052.5,1251.5 1053.5,1251.5 Z M 1028.5,1255.5 C 1031.46,1255.12 1032.46,1256.12 1031.5,1258.5C 1031.97,1260.13 1032.97,1261.3 1034.5,1262C 1033.23,1262.31 1032.07,1262.81 1031,1263.5C 1029.32,1262.48 1027.66,1261.48 1026,1260.5C 1020.5,1261.59 1020.16,1260.59 1025,1257.5C 1026.01,1258.34 1027.18,1258.67 1028.5,1258.5C 1028.5,1257.5 1028.5,1256.5 1028.5,1255.5 Z M 1003.5,1269.5 C 1003.09,1262.36 1005.76,1260.53 1011.5,1264C 1010.16,1267.73 1007.49,1269.56 1003.5,1269.5 Z M 1014.5,1261.5 C 1017.06,1261.13 1019.06,1261.97 1020.5,1264C 1020.17,1264.5 1019.83,1265 1019.5,1265.5C 1017.68,1262.94 1015.85,1262.94 1014,1265.5C 1013.5,1265 1013,1264.5 1012.5,1264C 1013.76,1263.58 1014.42,1262.75 1014.5,1261.5 Z M 1003.5,1269.5 C 1003.19,1272.42 1001.85,1273.42 999.5,1272.5C 997.52,1273.48 995.853,1274.82 994.5,1276.5C 994.167,1276 993.833,1275.5 993.5,1275C 994.707,1273.7 995.374,1272.2 995.5,1270.5C 994.5,1270.5 993.5,1270.5 992.5,1270.5C 992.649,1271.55 992.483,1272.55 992,1273.5C 990.28,1272.62 989.114,1271.28 988.5,1269.5C 991.816,1269.37 994.816,1268.37 997.5,1266.5C 998.722,1268.98 1000.72,1269.98 1003.5,1269.5 Z M 1016.5,1268.5 C 1016.64,1266.66 1017.31,1266.33 1018.5,1267.5C 1018.04,1268.3 1017.38,1268.63 1016.5,1268.5 Z M 978.5,1273.5 C 983.688,1273.97 983.688,1274.97 978.5,1276.5C 977.913,1275.77 977.913,1274.77 978.5,1273.5 Z M 952.5,1279.5 C 957.638,1281 957.638,1282 952.5,1282.5C 952.5,1281.5 952.5,1280.5 952.5,1279.5 Z M 939.5,1284.5 C 940.735,1284.72 941.735,1285.39 942.5,1286.5C 944.408,1282.16 947.408,1281.33 951.5,1284C 950.027,1284.71 949.36,1285.88 949.5,1287.5C 948.167,1287.5 946.833,1287.5 945.5,1287.5C 944.931,1291.21 943.431,1291.88 941,1289.5C 939.089,1292.02 937.255,1292.02 935.5,1289.5C 934.833,1289.83 934.167,1290.17 933.5,1290.5C 932.534,1288.6 932.201,1286.6 932.5,1284.5C 935.041,1283.9 937.374,1283.9 939.5,1284.5 Z M 920.5,1290.5 C 921.708,1291.23 923.041,1291.57 924.5,1291.5C 924.5,1292.5 924.5,1293.5 924.5,1294.5C 923.167,1294.5 921.833,1294.5 920.5,1294.5C 920.5,1293.17 920.5,1291.83 920.5,1290.5 Z M 900.5,1297.5 C 902.435,1298.15 904.435,1298.48 906.5,1298.5C 906.5,1299.83 906.5,1301.17 906.5,1302.5C 904.076,1302.81 901.743,1302.47 899.5,1301.5C 900.246,1300.26 900.579,1298.93 900.5,1297.5 Z M 888.5,1301.5 C 890.344,1302.2 890.844,1303.54 890,1305.5C 889.29,1306.97 888.124,1307.64 886.5,1307.5C 887.338,1315.54 886.005,1316.21 882.5,1309.5C 880.424,1311.29 878.257,1312.95 876,1314.5C 875.506,1312.87 875.34,1311.2 875.5,1309.5C 878.635,1309.45 880.302,1307.79 880.5,1304.5C 881.386,1305.32 881.719,1306.32 881.5,1307.5C 882.833,1307.5 884.167,1307.5 885.5,1307.5C 885.461,1304.91 886.461,1302.91 888.5,1301.5 Z M 896.5,1304.5 C 897.782,1305.71 897.782,1307.04 896.5,1308.5C 896.094,1307.44 896.094,1306.11 896.5,1304.5 Z M 861.5,1312.5 C 863.026,1313.1 864.026,1314.27 864.5,1316C 863.552,1316.48 862.552,1316.65 861.5,1316.5C 861.5,1315.17 861.5,1313.83 861.5,1312.5 Z M 867.5,1312.5 C 868.629,1314.63 868.796,1316.96 868,1319.5C 867.075,1318.95 866.242,1318.29 865.5,1317.5C 867.005,1316.16 867.672,1314.49 867.5,1312.5 Z M 849.5,1319.5 C 851.368,1320.79 851.534,1322.12 850,1323.5C 849.51,1322.21 849.343,1320.87 849.5,1319.5 Z M 833.5,1325.5 C 837.66,1326.24 838.994,1328.57 837.5,1332.5C 836.738,1331.37 836.071,1330.21 835.5,1329C 833.413,1329.22 831.413,1329.05 829.5,1328.5C 831.184,1327.85 832.517,1326.85 833.5,1325.5 Z M 814.5,1333.5 C 816.76,1334.24 816.927,1335.24 815,1336.5C 814.517,1335.55 814.351,1334.55 814.5,1333.5 Z M 805.5,1337.5 C 806.267,1338.17 806.934,1339.01 807.5,1340C 805.939,1340.19 805.272,1339.35 805.5,1337.5 Z M 785.5,1344.5 C 787.465,1344.95 787.798,1345.95 786.5,1347.5C 785.614,1346.68 785.281,1345.68 785.5,1344.5 Z M 751.5,1358.5 C 753.465,1358.95 753.798,1359.95 752.5,1361.5C 751.614,1360.68 751.281,1359.68 751.5,1358.5 Z M 743.5,1362.5 C 744.801,1364.46 744.301,1366.12 742,1367.5C 741.818,1365.67 742.318,1364 743.5,1362.5 Z M 648.5,1398.5 C 650.465,1398.95 650.798,1399.95 649.5,1401.5C 648.614,1400.68 648.281,1399.68 648.5,1398.5 Z M 636.5,1403.5 C 634.663,1403.36 634.33,1402.69 635.5,1401.5C 636.298,1401.96 636.631,1402.62 636.5,1403.5 Z M 636.5,1403.5 C 638.028,1403.52 638.528,1404.18 638,1405.5C 637.283,1404.96 636.783,1404.29 636.5,1403.5 Z M 611.5,1413.5 C 611.56,1412.96 611.893,1412.62 612.5,1412.5C 613.583,1413.36 613.749,1414.36 613,1415.5C 612.722,1414.58 612.222,1413.92 611.5,1413.5 Z M 602.5,1419.5 C 603.568,1418.57 604.901,1418.23 606.5,1418.5C 606.719,1419.68 606.386,1420.68 605.5,1421.5C 604.735,1420.39 603.735,1419.72 602.5,1419.5 Z M 576.5,1429.5 C 577.5,1429.5 578.5,1429.5 579.5,1429.5C 579.495,1434.31 578.495,1434.31 576.5,1429.5 Z M 569.5,1433.5 C 570.5,1433.5 571.5,1433.5 572.5,1433.5C 572.5,1434.5 572.5,1435.5 572.5,1436.5C 570.801,1436.66 569.134,1436.49 567.5,1436C 568.756,1435.58 569.423,1434.75 569.5,1433.5 Z M 552.5,1446.5 C 549.86,1448.01 547.527,1447.67 545.5,1445.5C 547.487,1443.67 549.821,1442.67 552.5,1442.5C 552.5,1443.83 552.5,1445.17 552.5,1446.5 Z M 520.5,1454.5 C 522.263,1453.67 523.93,1454.17 525.5,1456C 524.773,1457.4 524.273,1458.9 524,1460.5C 518.331,1461.79 515.831,1461.79 516.5,1460.5C 516.565,1458.3 517.232,1456.3 518.5,1454.5C 519.167,1455.5 519.833,1456.5 520.5,1457.5C 521.776,1456.39 521.776,1455.39 520.5,1454.5 Z M 430.5,1497.5 C 430.5,1498.5 430.5,1499.5 430.5,1500.5C 428.488,1501.01 426.488,1501.18 424.5,1501C 426.664,1499.98 428.664,1498.81 430.5,1497.5 Z M 403.5,1507.5 C 405.435,1508.15 407.435,1508.48 409.5,1508.5C 409.5,1509.5 409.5,1510.5 409.5,1511.5C 407.43,1511.45 405.597,1512.12 404,1513.5C 403.5,1513.17 403,1512.83 402.5,1512.5C 403.309,1510.93 403.643,1509.26 403.5,1507.5 Z M 399.5,1515.5 C 400.675,1515.28 401.675,1515.61 402.5,1516.5C 400.948,1517.8 399.948,1517.46 399.5,1515.5 Z M 190.5,1595.5 C 199.628,1596.93 199.628,1598.59 190.5,1600.5C 190.5,1598.83 190.5,1597.17 190.5,1595.5 Z M 186.5,1600.5 C 188.337,1600.64 188.67,1601.31 187.5,1602.5C 186.702,1602.04 186.369,1601.38 186.5,1600.5 Z M 105.5,1635.5 C 109.446,1635.49 111.113,1637.49 110.5,1641.5C 108.833,1641.5 107.167,1641.5 105.5,1641.5C 104.725,1639.39 104.725,1637.39 105.5,1635.5 Z"/></g>
<g><path style="opacity:0.03" fill="#fefffe" d="M 1964.5,1069.5 C 1966.29,1069.21 1967.95,1069.55 1969.5,1070.5C 1968.67,1070.83 1967.83,1071.17 1967,1071.5C 1965.62,1071.32 1964.79,1070.65 1964.5,1069.5 Z"/></g>
<g><path style="opacity:0.012" fill="#fefffe" d="M 1975.5,1069.5 C 1977.46,1069.95 1977.8,1070.95 1976.5,1072.5C 1975.61,1071.68 1975.28,1070.68 1975.5,1069.5 Z"/></g>
<g><path style="opacity:0.015" fill="#fefffe" d="M 308.5,1075.5 C 309.851,1078.77 309.684,1082.11 308,1085.5C 303.163,1088.25 298.497,1091.25 294,1094.5C 293.333,1093.17 293.333,1091.83 294,1090.5C 299.037,1085.63 303.87,1080.63 308.5,1075.5 Z"/></g>
<g><path style="opacity:0.049" fill="#fefffe" d="M 1827.5,1090.5 C 1828.68,1090.28 1829.68,1090.61 1830.5,1091.5C 1828.95,1092.8 1827.95,1092.46 1827.5,1090.5 Z"/></g>
<g><path style="opacity:0.022" fill="#fefffe" d="M 1812.5,1092.5 C 1815.67,1092.95 1816.01,1093.95 1813.5,1095.5C 1812.61,1094.68 1812.28,1093.68 1812.5,1092.5 Z"/></g>
<g><path style="opacity:0.02" fill="#fefffe" d="M 643.5,1117.5 C 645.293,1119.43 646.293,1121.76 646.5,1124.5C 634.574,1128.2 622.741,1132.2 611,1136.5C 610.308,1135.97 609.808,1135.31 609.5,1134.5C 620.581,1128.29 631.914,1122.63 643.5,1117.5 Z"/></g>
<g><path style="opacity:0.008" fill="#fefffe" d="M 1637.5,1131.5 C 1639.46,1131.95 1639.8,1132.95 1638.5,1134.5C 1637.61,1133.68 1637.28,1132.68 1637.5,1131.5 Z"/></g>
<g><path style="opacity:0.01" fill="#fefffe" d="M 1253.5,1184.5 C 1255.46,1184.95 1255.8,1185.95 1254.5,1187.5C 1252.48,1186.87 1252.15,1185.87 1253.5,1184.5 Z"/></g>
<g><path style="opacity:0.036" fill="#fefffe" d="M 1408.5,1190.5 C 1409.68,1190.28 1410.68,1190.61 1411.5,1191.5C 1409.95,1192.8 1408.95,1192.46 1408.5,1190.5 Z"/></g>
<g><path style="opacity:0.024" fill="#fefffe" d="M 1225.5,1194.5 C 1227.46,1194.95 1227.8,1195.95 1226.5,1197.5C 1224.48,1196.87 1224.15,1195.87 1225.5,1194.5 Z"/></g>
<g><path style="opacity:0.022" fill="#fefffe" d="M 1187.5,1204.5 C 1188.68,1204.28 1189.68,1204.61 1190.5,1205.5C 1188.95,1206.8 1187.95,1206.46 1187.5,1204.5 Z"/></g>
<g><path style="opacity:0.146" fill="#fefffe" d="M 1117.5,1227.5 C 1118.5,1227.5 1119.5,1227.5 1120.5,1227.5C 1120.5,1228.5 1120.5,1229.5 1120.5,1230.5C 1119.5,1230.5 1118.5,1230.5 1117.5,1230.5C 1117.5,1229.5 1117.5,1228.5 1117.5,1227.5 Z"/></g>
<g><path style="opacity:0.186" fill="#fefffe" d="M 1037.5,1255.5 C 1039.46,1255.95 1039.8,1256.95 1038.5,1258.5C 1037.61,1257.68 1037.28,1256.68 1037.5,1255.5 Z"/></g>
<g><path style="opacity:0.018" fill="#fefffe" d="M 939.5,1284.5 C 939.5,1285.5 939.5,1286.5 939.5,1287.5C 935.69,1286.75 935.69,1285.75 939.5,1284.5 Z"/></g>
<g><path style="opacity:0.096" fill="#fefffe" d="M 1519.5,1405.5 C 1524.7,1404.38 1530.04,1404.54 1535.5,1406C 1529.98,1409.47 1524.64,1409.3 1519.5,1405.5 Z"/></g>
<g><path style="opacity:0.492" fill="#fefffe" d="M 505.5,1457.5 C 504.48,1460.84 502.146,1462.84 498.5,1463.5C 497.127,1467.76 494.794,1468.43 491.5,1465.5C 490.614,1466.32 490.281,1467.32 490.5,1468.5C 485.181,1470.47 479.847,1472.47 474.5,1474.5C 473.878,1469.97 475.878,1467.8 480.5,1468C 482.759,1466.29 484.926,1464.45 487,1462.5C 487.689,1463.36 488.522,1464.02 489.5,1464.5C 491.898,1461.8 494.898,1460.47 498.5,1460.5C 497.848,1456.44 499.515,1454.44 503.5,1454.5C 503.285,1456.18 503.952,1457.18 505.5,1457.5 Z"/></g>
<g><path style="opacity:0.426" fill="#fefffe" d="M 370.5,1518.5 C 372.167,1518.5 373.833,1518.5 375.5,1518.5C 375.719,1519.68 375.386,1520.68 374.5,1521.5C 368.825,1523.99 363.159,1526.33 357.5,1528.5C 357.281,1527.32 357.614,1526.32 358.5,1525.5C 362.471,1522.88 366.471,1520.54 370.5,1518.5 Z"/></g>
<g><path style="opacity:0.257" fill="#fefffe" d="M 350.5,1528.5 C 352.167,1528.5 353.833,1528.5 355.5,1528.5C 355.5,1529.5 355.5,1530.5 355.5,1531.5C 352.027,1531.58 348.694,1532.24 345.5,1533.5C 345.5,1535.17 345.5,1536.83 345.5,1538.5C 344.5,1538.5 343.5,1538.5 342.5,1538.5C 342.338,1536.47 342.505,1534.47 343,1532.5C 345.974,1531.92 348.474,1530.58 350.5,1528.5 Z"/></g>
<g><path style="opacity:0.318" fill="#fefffe" d="M 324.5,1542.5 C 323.596,1543.21 323.263,1544.21 323.5,1545.5C 321.436,1545.69 319.436,1546.19 317.5,1547C 316.663,1548.01 316.33,1549.18 316.5,1550.5C 314.533,1550.74 312.699,1550.41 311,1549.5C 310.517,1550.45 310.351,1551.45 310.5,1552.5C 309.5,1552.5 308.5,1552.5 307.5,1552.5C 307.167,1550.5 306.833,1548.5 306.5,1546.5C 307.5,1546.5 308.5,1546.5 309.5,1546.5C 309.33,1545.18 309.663,1544.01 310.5,1543C 312.899,1542.29 315.232,1542.46 317.5,1543.5C 318.782,1540.36 321.115,1539.02 324.5,1539.5C 324.5,1540.5 324.5,1541.5 324.5,1542.5 Z"/></g>
<g><path style="opacity:0.302" fill="#fefffe" d="M 300.5,1553.5 C 298.058,1550.27 299.058,1548.27 303.5,1547.5C 303.5,1549.5 303.5,1551.5 303.5,1553.5C 302.5,1553.5 301.5,1553.5 300.5,1553.5 Z"/></g>
<g><path style="opacity:0.465" fill="#fefffe" d="M 295.5,1561.5 C 294.448,1561.65 293.448,1561.48 292.5,1561C 291.845,1558.84 290.512,1557.34 288.5,1556.5C 287.848,1552.44 289.515,1550.44 293.5,1550.5C 293.5,1551.5 293.5,1552.5 293.5,1553.5C 294.833,1553.5 296.167,1553.5 297.5,1553.5C 297.675,1556.33 296.342,1558 293.5,1558.5C 294.612,1559.27 295.279,1560.27 295.5,1561.5 Z"/></g>
<g><path style="opacity:0.339" fill="#fefffe" d="M 288.5,1556.5 C 288.5,1558.17 288.5,1559.83 288.5,1561.5C 285.261,1560.61 282.261,1559.28 279.5,1557.5C 281.092,1555.55 283.092,1554.22 285.5,1553.5C 286.141,1554.99 287.141,1555.99 288.5,1556.5 Z"/></g>
<g><path style="opacity:0.092" fill="#fefffe" d="M 300.5,1553.5 C 300.719,1554.68 300.386,1555.68 299.5,1556.5C 298.202,1554.95 298.535,1553.95 300.5,1553.5 Z"/></g>
<g><path style="opacity:0.234" fill="#fefffe" d="M 275.5,1560.5 C 276.5,1560.5 277.5,1560.5 278.5,1560.5C 278.5,1561.5 278.5,1562.5 278.5,1563.5C 277.5,1563.5 276.5,1563.5 275.5,1563.5C 275.5,1562.5 275.5,1561.5 275.5,1560.5 Z"/></g>
<g><path style="opacity:0.42" fill="#fefffe" d="M 270.5,1561.5 C 272.225,1561.84 272.725,1562.84 272,1564.5C 270.506,1565.75 269.006,1565.75 267.5,1564.5C 268.993,1563.86 269.993,1562.86 270.5,1561.5 Z"/></g>
<g><path style="opacity:0.307" fill="#fefffe" d="M 260.5,1565.5 C 261.995,1565.41 262.995,1566.08 263.5,1567.5C 261.838,1568.33 260.505,1569.49 259.5,1571C 257.866,1571.49 256.199,1571.66 254.5,1571.5C 254.5,1572.83 254.5,1574.17 254.5,1575.5C 251.05,1576.24 249.384,1574.91 249.5,1571.5C 250.5,1571.5 251.5,1571.5 252.5,1571.5C 252.5,1570.5 252.5,1569.5 252.5,1568.5C 255.917,1568.98 258.584,1567.98 260.5,1565.5 Z"/></g>
<g><path style="opacity:0.278" fill="#fefffe" d="M 150.5,1609.5 C 151.675,1609.28 152.675,1609.61 153.5,1610.5C 151.948,1611.8 150.948,1611.46 150.5,1609.5 Z"/></g>
<g><path style="opacity:0.247" fill="#fefffe" d="M 117.5,1625.5 C 119.527,1625.34 121.527,1625.5 123.5,1626C 124.337,1627.01 124.67,1628.18 124.5,1629.5C 122.194,1629.01 119.861,1628.67 117.5,1628.5C 117.5,1627.5 117.5,1626.5 117.5,1625.5 Z"/></g>
<g><path style="opacity:0.004" fill="#fefffe" d="M 92.5,1644.5 C 92.8966,1643.47 93.5632,1643.31 94.5,1644C 93.9056,1644.46 93.2389,1644.63 92.5,1644.5 Z"/></g>
<g><path style="opacity:0.408" fill="#fefffe" d="M 71.5,1650.5 C 76.7804,1653.09 76.7804,1655.75 71.5,1658.5C 67.3028,1659.9 65.3028,1658.23 65.5,1653.5C 68.3933,1653.97 70.3933,1652.97 71.5,1650.5 Z"/></g>
<g><path style="opacity:0.308" fill="#fefffe" d="M 58.5,1657.5 C 60.8333,1657.5 63.1667,1657.5 65.5,1657.5C 65.5,1658.5 65.5,1659.5 65.5,1660.5C 63.1272,1661.29 60.7938,1662.29 58.5,1663.5C 57.4808,1661.54 57.4808,1659.54 58.5,1657.5 Z"/></g>
<g><path style="opacity:0.237" fill="#fefffe" d="M 48.5,1664.5 C 51.9568,1664.96 53.6235,1666.96 53.5,1670.5C 50.0432,1670.04 48.3765,1668.04 48.5,1664.5 Z"/></g>
</svg>
