<?xml version="1.0" encoding="UTF-8"?>
<!DOCTYPE svg PUBLIC "-//W3C//DTD SVG 1.1//EN" "http://www.w3.org/Graphics/SVG/1.1/DTD/svg11.dtd">
<svg xmlns="http://www.w3.org/2000/svg" version="1.1" width="1081px" height="383px" style="shape-rendering:geometricPrecision; text-rendering:geometricPrecision; image-rendering:optimizeQuality; fill-rule:evenodd; clip-rule:evenodd" xmlns:xlink="http://www.w3.org/1999/xlink">
<g><path style="opacity:0.9" fill="#fefffe" d="M 657.5,-0.5 C 664.5,-0.5 671.5,-0.5 678.5,-0.5C 710.624,9.16014 725.124,30.8268 722,64.5C 710.792,100.67 686.625,114.503 649.5,106C 620.151,92.8054 608.651,70.3054 615,38.5C 622.199,17.8311 636.365,4.83109 657.5,-0.5 Z M 663.5,7.5 C 683.562,7.08845 698.728,15.4218 709,32.5C 719.564,59.811 712.397,80.9777 687.5,96C 666.141,104.414 647.641,100.247 632,83.5C 618,63.8333 618,44.1667 632,24.5C 640.536,14.9852 651.036,9.31853 663.5,7.5 Z"/></g>
<g><path style="opacity:0.938" fill="#fe0000" d="M 664.5,23.5 C 689.733,24.5627 700.567,37.5627 697,62.5C 690.866,78.1569 679.366,84.9902 662.5,83C 644.795,77.7673 636.961,65.9339 639,47.5C 642.574,34.0879 651.074,26.0879 664.5,23.5 Z"/></g>
<g><path style="opacity:0.989" fill="#fefffe" d="M -0.5,69.5 C 30.8351,69.3334 62.1684,69.5 93.5,70C 153.415,67.5823 182.415,96.249 180.5,156C 181.709,169.921 179.209,183.088 173,195.5C 164.147,204.011 153.647,209.511 141.5,212C 156.674,214.827 168.841,222.327 178,234.5C 181.532,241.095 183.865,248.095 185,255.5C 186.576,277.804 186.909,300.137 186,322.5C 185.028,360.471 165.528,378.971 127.5,378C 84.8346,378.5 42.168,378.667 -0.5,378.5C -0.5,275.5 -0.5,172.5 -0.5,69.5 Z M 80.5,123.5 C 85.5518,123.45 90.5518,123.95 95.5,125C 100.149,127.455 102.983,131.288 104,136.5C 105.927,150.49 105.927,164.49 104,178.5C 103.749,184.75 100.583,188.583 94.5,190C 89.8452,190.499 85.1785,190.666 80.5,190.5C 80.5,168.167 80.5,145.833 80.5,123.5 Z M 80.5,240.5 C 88.3379,239.586 95.5046,241.252 102,245.5C 103.827,249.281 104.827,253.281 105,257.5C 105.667,273.833 105.667,290.167 105,306.5C 105.538,314.272 102.371,319.772 95.5,323C 90.5316,324.079 85.5316,324.912 80.5,325.5C 80.5,297.167 80.5,268.833 80.5,240.5 Z"/></g>
<g><path style="opacity:0.979" fill="#fefffe" d="M 483.5,69.5 C 510.5,69.5 537.5,69.5 564.5,69.5C 564.5,151.833 564.5,234.167 564.5,316.5C 580.5,316.5 596.5,316.5 612.5,316.5C 612.5,337.167 612.5,357.833 612.5,378.5C 569.167,378.5 525.833,378.5 482.5,378.5C 482.169,275.43 482.502,172.43 483.5,69.5 Z"/></g>
<g><path style="opacity:0.982" fill="#fefffe" d="M 322.5,382.5 C 308.167,382.5 293.833,382.5 279.5,382.5C 236.199,375.696 213.366,350.362 211,306.5C 210.333,269.833 210.333,233.167 211,196.5C 212.753,156.096 233.253,131.596 272.5,123C 295.241,119.22 317.574,120.886 339.5,128C 370.447,142.016 386.281,166.183 387,200.5C 387.5,219.497 387.667,238.497 387.5,257.5C 354.5,257.5 321.5,257.5 288.5,257.5C 288.333,280.169 288.5,302.836 289,325.5C 291.224,337.889 297.89,340.889 309,334.5C 310.439,332.725 311.439,330.725 312,328.5C 313.328,309.873 314.161,291.206 314.5,272.5C 338.833,272.5 363.167,272.5 387.5,272.5C 387.872,289.202 387.372,305.868 386,322.5C 377.572,356.098 356.405,376.098 322.5,382.5 Z M 295.5,166.5 C 301.731,165.361 305.898,167.695 308,173.5C 309.409,187.449 309.909,201.449 309.5,215.5C 302.5,215.5 295.5,215.5 288.5,215.5C 288.333,202.829 288.5,190.162 289,177.5C 289.16,172.496 291.326,168.829 295.5,166.5 Z"/></g>
<g><path style="opacity:0.982" fill="#fefffe" d="M 1080.5,200.5 C 1080.5,219.5 1080.5,238.5 1080.5,257.5C 1047.5,257.5 1014.5,257.5 981.5,257.5C 981.333,280.169 981.5,302.836 982,325.5C 984.224,337.889 990.89,340.889 1002,334.5C 1003.44,332.725 1004.44,330.725 1005,328.5C 1006.33,309.873 1007.16,291.206 1007.5,272.5C 1031.83,272.5 1056.17,272.5 1080.5,272.5C 1080.5,286.5 1080.5,300.5 1080.5,314.5C 1076.54,344.64 1060.54,365.806 1032.5,378C 1026.75,379.686 1021.08,381.186 1015.5,382.5C 1001.17,382.5 986.833,382.5 972.5,382.5C 929.199,375.696 906.366,350.362 904,306.5C 903.333,269.833 903.333,233.167 904,196.5C 904.575,159.436 922.409,135.603 957.5,125C 982.773,118.829 1007.77,119.829 1032.5,128C 1052.36,135.859 1066.19,149.692 1074,169.5C 1077.02,179.796 1079.19,190.129 1080.5,200.5 Z M 988.5,166.5 C 994.731,165.361 998.898,167.695 1001,173.5C 1002.41,187.449 1002.91,201.449 1002.5,215.5C 995.5,215.5 988.5,215.5 981.5,215.5C 981.333,202.829 981.5,190.162 982,177.5C 982.16,172.496 984.326,168.829 988.5,166.5 Z"/></g>
<g><path style="opacity:0.989" fill="#fefffe" d="M 628.5,125.5 C 655.167,125.5 681.833,125.5 708.5,125.5C 708.5,209.833 708.5,294.167 708.5,378.5C 681.833,378.5 655.167,378.5 628.5,378.5C 628.5,294.167 628.5,209.833 628.5,125.5 Z"/></g>
<g><path style="opacity:0.984" fill="#fefffe" d="M 719.5,125.5 C 742.833,125.5 766.167,125.5 789.5,125.5C 796.223,184.171 803.056,242.838 810,301.5C 815.71,242.986 820.877,184.319 825.5,125.5C 848.833,125.5 872.167,125.5 895.5,125.5C 883.901,209.19 872.068,292.857 860,376.5C 843.219,377.826 826.219,378.493 809,378.5C 791.781,378.493 774.781,377.826 758,376.5C 745.21,292.805 732.377,209.138 719.5,125.5 Z"/></g>
</svg>
